<svg xmlns="http://www.w3.org/2000/svg" viewBox="0 0 122.88 37.203" id="follow-us-on-twitter">
  <path fill="#1DA1F2" fill-rule="evenodd" d="M120.115 0H2.766A2.772 2.772 0 0 0 0 2.765v31.673a2.773 2.773 0 0 0 2.766 2.766h117.35a2.772 2.772 0 0 0 2.765-2.766V2.765A2.772 2.772 0 0 0 120.115 0z" clip-rule="evenodd"></path>
  <path fill="#1A91DA" d="M33.263 36.232V0h1.812v36.232h-1.812z"></path>
  <path fill="#056CAB" d="M.426 33.681c0 .702.287 1.34.749 1.802.461.463 1.1.75 1.803.75h116.924a2.552 2.552 0 0 0 2.552-2.552l.426-31.339v31.339c0 .819-.335 1.564-.874 2.104a2.974 2.974 0 0 1-2.104.874H2.979a2.97 2.97 0 0 1-2.104-.875A2.966 2.966 0 0 1 0 33.681V2.342l.426 31.339z"></path>
  <path fill="#1A72AD" d="m51.718 19.243-.175 2.331-2.108-.096h-.192l-.08 4.52.127 3.353h-3.194l.16-3.033-.08-4.839h-.208l-2.124.096-.192-.224.176-2.331h7.713l.177.223zm11.64 10.108h-3.385l-.974-3.736h-.191l-.894 3.736h-3.401L52.085 19.02h3.098l.16 1.597 1.006 5.525h.191l1.198-4.711-.543-2.411h3.226l.224 1.916 1.085 5.206h.191l1.262-5.334.287-1.788h2.938l-3.05 10.331zm6.947-3.353.128 3.353h-3.21l.159-3.033-.159-7.298h3.258l-.176 6.978zm9.373-6.755-.176 2.331-2.107-.096h-.191l-.08 4.52.128 3.353h-3.194l.16-3.033-.08-4.839h-.208l-2.124.096-.191-.224.176-2.331h7.712l.175.223zm8.287 0-.175 2.331-2.108-.096h-.192l-.08 4.52.128 3.353h-3.193l.159-3.033-.079-4.839h-.208l-2.124.096-.191-.224.176-2.331h7.713l.174.223zm8.208 7.553.176.224-.191 2.331h-7.282l.16-3.033-.16-7.298h7.409l.176.224-.207 2.331-2.539-.096H92.07l-.032 1.453h1.581l1.66-.048.176.224-.191 2.331-1.853-.048h-1.438l-.016.607.032.894h1.533l2.651-.096zm8.143-1.517a56.181 56.181 0 0 0 2.3 3.321l-.048.352c-1.086.33-2.156.526-3.21.591l-.303-.256-.192-.399c-.085-.17-.255-.529-.511-1.077a30.998 30.998 0 0 1-.671-1.541h-1.069l.111 3.081h-3.209l.159-3.033-.159-7.298 4.902-.016c1.16 0 2.054.273 2.683.822.628.548.941 1.338.941 2.371 0 .606-.151 1.177-.455 1.709s-.726.99-1.269 1.373zm-1.644-2.762c0-.426-.109-.742-.327-.95-.219-.207-.572-.322-1.063-.343l-.574.048-.064 2.666 1.166.064c.298-.139.517-.325.655-.56.138-.233.207-.543.207-.925zM45.244 9.258l-.028 1.376h.743l1.027-.027.083.11-.092 1.101-1.127-.028h-.651l-.01.321.056 1.899h-1.496l.083-1.752-.083-4.165h3.706l.083.11-.101 1.101-1.431-.055-.762.009zm5.552-1.257c.844 0 1.495.252 1.954.757.459.504.688 1.222.688 2.151 0 1.015-.251 1.803-.752 2.362s-1.208.839-2.119.839c-.838 0-1.486-.259-1.945-.775s-.688-1.249-.688-2.197c0-1.002.249-1.776.748-2.32.498-.545 1.203-.817 2.114-.817zm-.128 1.192c-.288 0-.517.057-.688.17-.171.113-.297.297-.376.551-.08.253-.119.598-.119 1.032 0 .52.04.928.119 1.225.08.297.207.509.381.638s.411.193.711.193c.293 0 .526-.057.697-.17.171-.113.295-.298.371-.555.077-.257.115-.608.115-1.055 0-.514-.04-.917-.12-1.211-.079-.294-.205-.503-.376-.628-.171-.127-.409-.19-.715-.19zm7.286 3.707-.101 1.11h-3.33l.083-1.752-.083-4.165h1.514l-.083 4.018.027.679h1.881l.092.11zm4.378 0-.101 1.11H58.9l.083-1.752-.083-4.165h1.514l-.083 4.018.028.679h1.88l.093.11zm3.167-4.899c.844 0 1.495.252 1.954.757s.688 1.222.688 2.151c0 1.015-.251 1.803-.753 2.362-.501.56-1.207.839-2.119.839-.838 0-1.485-.259-1.944-.775s-.688-1.249-.688-2.197c0-1.002.249-1.776.748-2.32.498-.545 1.203-.817 2.114-.817zm-.128 1.192c-.288 0-.517.057-.688.17-.171.113-.297.297-.376.551-.08.253-.119.598-.119 1.032 0 .52.039.928.119 1.225.079.297.206.509.381.638.174.128.411.193.711.193.294 0 .525-.057.697-.17.171-.113.295-.298.371-.555.077-.257.115-.608.115-1.055 0-.514-.04-.917-.119-1.211-.08-.294-.205-.503-.377-.628-.171-.127-.409-.19-.715-.19zm9.506 4.817h-1.569l-.742-2.55h-.092l-.734 2.55h-1.577l-1.551-5.917h1.449l.091.807.854 3.596h.092l.871-2.99-.367-1.413h1.505l.128.954.891 3.449h.091l1.001-3.514.155-.89h1.376l-1.872 5.918zm9.242-2.917-.009.853c.006.691-.207 1.223-.638 1.596-.432.373-1.044.56-1.839.56-.771 0-1.359-.184-1.767-.55-.406-.367-.601-.893-.582-1.578l.018-.899-.036-2.981h1.486l-.064 3.679c-.006.391.073.679.238.862s.422.275.771.275c.355 0 .616-.09.784-.27.169-.181.25-.458.243-.831l-.063-3.715h1.514l-.056 2.999zm3.571-3.092c.526 0 1.058.104 1.597.312l-.239 1.248-.22.083a3.442 3.442 0 0 0-.697-.358 1.81 1.81 0 0 0-.605-.128c-.202 0-.362.05-.481.151a.454.454 0 0 0-.179.354c0 .153.074.283.225.39.149.107.387.234.711.381.342.159.619.304.83.436.211.131.395.307.55.527.156.22.234.489.234.807 0 .355-.097.676-.289.963s-.467.515-.821.684c-.354.168-.764.252-1.229.252a4.851 4.851 0 0 1-1.834-.367l.211-1.33.156-.091c.256.214.536.38.839.5.303.119.564.179.784.179.232 0 .408-.052.527-.156a.473.473 0 0 0 .18-.367c0-.166-.077-.303-.229-.413a4.44 4.44 0 0 0-.716-.386 7.765 7.765 0 0 1-.812-.426 1.847 1.847 0 0 1-.546-.527c-.153-.221-.229-.489-.229-.808 0-.361.097-.687.289-.977s.461-.518.807-.684a2.7 2.7 0 0 1 1.186-.249zm7.069 0c.844 0 1.495.252 1.954.757.458.504.688 1.222.688 2.151 0 1.015-.251 1.803-.753 2.362-.501.56-1.208.839-2.119.839-.838 0-1.486-.259-1.944-.775-.459-.517-.688-1.249-.688-2.197 0-1.002.249-1.776.748-2.32.498-.545 1.203-.817 2.114-.817zm-.129 1.192c-.287 0-.517.057-.688.17s-.297.297-.376.551c-.08.253-.119.598-.119 1.032 0 .52.039.928.119 1.225.079.297.206.509.381.638.174.128.411.193.711.193.293 0 .525-.057.697-.17.171-.113.295-.298.371-.555.076-.257.114-.608.114-1.055 0-.514-.039-.917-.119-1.211-.079-.294-.205-.503-.376-.628-.17-.127-.408-.19-.715-.19zm8.956 2.946.055 1.871h-1.614l-2.101-3.66h-.092l-.009 1.578.055 2.082h-1.349l.073-1.743-.073-4.174h1.605l2.11 3.661h.091l-.036-3.605 1.367-.083-.082 4.073z"></path>
  <path fill="#FFF" d="m45.244 8.917-.028 1.376h.743l1.027-.027.083.11-.092 1.101-1.128-.027h-.651l-.01.321.056 1.899h-1.496l.083-1.752-.083-4.165h3.706l.083.11-.101 1.101-1.431-.055-.761.008zm5.552-1.257c.844 0 1.495.252 1.954.757.459.505.688 1.222.688 2.151 0 1.015-.251 1.803-.752 2.362s-1.208.839-2.119.839c-.838 0-1.486-.258-1.945-.775-.458-.517-.688-1.249-.688-2.197 0-1.003.249-1.777.748-2.321.498-.543 1.203-.816 2.114-.816zm-.128 1.193c-.288 0-.517.057-.688.169-.171.113-.297.297-.376.551-.08.253-.119.598-.119 1.032 0 .52.04.928.119 1.225.08.297.207.509.381.638.174.129.411.193.711.193.293 0 .526-.057.697-.17s.295-.298.371-.555c.077-.257.115-.608.115-1.055 0-.514-.04-.917-.12-1.211-.079-.293-.205-.503-.376-.628s-.409-.189-.715-.189zm7.286 3.706-.101 1.11h-3.33l.083-1.752-.083-4.165h1.514l-.083 4.018.027.679h1.881l.092.11zm4.378 0-.101 1.11H58.9l.083-1.752-.083-4.165h1.514l-.083 4.018.028.679h1.88l.093.11zm3.167-4.899c.844 0 1.495.252 1.954.757.459.505.688 1.222.688 2.151 0 1.015-.251 1.803-.753 2.362-.501.56-1.207.839-2.119.839-.838 0-1.485-.258-1.944-.775-.459-.517-.688-1.249-.688-2.197 0-1.003.249-1.777.748-2.321.498-.543 1.203-.816 2.114-.816zm-.128 1.193c-.288 0-.517.057-.688.169-.171.113-.297.297-.376.551-.08.253-.119.598-.119 1.032 0 .52.039.928.119 1.225.079.297.206.509.381.638.174.129.411.193.711.193.294 0 .525-.057.697-.17.171-.113.295-.298.371-.555.077-.257.115-.608.115-1.055 0-.514-.04-.917-.119-1.211-.08-.293-.205-.503-.377-.628-.171-.126-.409-.189-.715-.189zm9.506 4.816h-1.569l-.742-2.55h-.092l-.734 2.55h-1.577l-1.551-5.917h1.449l.092.808.854 3.596h.092l.871-2.99-.367-1.413h1.505l.128.954.891 3.449h.091l1.001-3.513.155-.89h1.376l-1.873 5.916zm9.242-2.917-.009.853c.006.691-.207 1.223-.638 1.596-.432.374-1.044.56-1.839.56-.771 0-1.359-.184-1.767-.55-.406-.367-.601-.893-.582-1.578l.018-.899-.036-2.981h1.486l-.064 3.679c-.006.392.073.679.238.862s.422.275.771.275c.355 0 .616-.09.784-.271.169-.181.25-.458.243-.831l-.063-3.715h1.514l-.056 3zM87.69 7.66c.526 0 1.058.104 1.597.312l-.239 1.248-.22.083a3.386 3.386 0 0 0-.697-.357 1.785 1.785 0 0 0-.605-.128c-.202 0-.362.05-.481.151a.452.452 0 0 0-.179.353c0 .153.074.283.225.39.149.107.387.234.711.381.342.159.619.304.83.436.211.131.395.307.55.527.156.22.234.489.234.807 0 .355-.097.676-.289.963a1.985 1.985 0 0 1-.821.684c-.354.168-.764.252-1.229.252a4.851 4.851 0 0 1-1.834-.367l.211-1.331.156-.091c.256.214.536.38.839.5.303.119.564.179.784.179.232 0 .408-.052.527-.156a.473.473 0 0 0 .18-.367.495.495 0 0 0-.229-.413 4.44 4.44 0 0 0-.716-.386 7.765 7.765 0 0 1-.812-.426 1.847 1.847 0 0 1-.546-.527c-.153-.22-.229-.489-.229-.808 0-.361.097-.687.289-.977s.461-.518.807-.683.74-.249 1.186-.249zm7.069 0c.844 0 1.495.252 1.954.757.458.505.688 1.222.688 2.151 0 1.015-.251 1.803-.753 2.362-.501.56-1.208.839-2.119.839-.838 0-1.486-.258-1.944-.775-.459-.517-.688-1.249-.688-2.197 0-1.003.249-1.777.748-2.321.498-.543 1.203-.816 2.114-.816zm-.129 1.193c-.287 0-.517.057-.688.169-.171.113-.297.297-.376.551-.08.253-.119.598-.119 1.032 0 .52.039.928.119 1.225.079.297.206.509.381.638.174.129.411.193.711.193.293 0 .525-.057.697-.17.171-.113.295-.298.371-.555.076-.257.114-.608.114-1.055 0-.514-.039-.917-.119-1.211-.079-.293-.205-.503-.376-.628s-.408-.189-.715-.189zm8.956 2.945.055 1.871h-1.614l-2.101-3.66h-.092l-.009 1.578.055 2.082h-1.349l.073-1.743-.073-4.174h1.605l2.11 3.661h.091l-.036-3.605 1.367-.083-.082 4.073zm-51.868 6.978-.175 2.332-2.108-.096h-.192l-.08 4.519.127 3.354h-3.194l.16-3.034-.08-4.838h-.208l-2.124.096-.192-.224.176-2.332h7.713l.177.223zm11.64 10.108h-3.385l-.974-3.736h-.191l-.894 3.736h-3.401l-2.427-10.332h3.098l.16 1.597 1.006 5.524h.191l1.198-4.71-.543-2.412h3.226l.224 1.917 1.085 5.205h.191l1.262-5.333.287-1.789h2.938l-3.051 10.333zm6.947-3.354.128 3.354h-3.21l.159-3.034-.159-7.297h3.258l-.176 6.977zm9.373-6.754-.176 2.332-2.107-.096h-.191l-.08 4.519.128 3.354h-3.194l.16-3.034-.08-4.838h-.208l-2.124.096-.191-.224.176-2.332h7.712l.175.223zm8.287 0-.175 2.332-2.108-.096h-.192l-.08 4.519.128 3.354h-3.193l.159-3.034-.079-4.838h-.208l-2.124.096-.191-.224.176-2.332h7.713l.174.223zm8.208 7.553.176.224-.191 2.331h-7.282l.16-3.034-.16-7.297h7.409l.176.224-.207 2.332-2.539-.096H92.07l-.032 1.453h1.581l1.66-.048.176.224-.191 2.331-1.853-.048h-1.438l-.016.606.032.895h1.533l2.651-.097zm8.143-1.517a55.853 55.853 0 0 0 2.3 3.321l-.048.352c-1.086.33-2.156.527-3.21.591l-.303-.255-.192-.399a59.805 59.805 0 0 1-.511-1.078 30.205 30.205 0 0 1-.671-1.541h-1.069l.111 3.082h-3.209l.159-3.034-.159-7.297 4.902-.016c1.16 0 2.054.274 2.683.823.628.548.941 1.338.941 2.371 0 .606-.151 1.176-.455 1.708s-.726.989-1.269 1.372zm-1.644-2.762c0-.426-.109-.743-.327-.95-.219-.208-.572-.322-1.063-.344l-.574.048-.064 2.667 1.166.063c.298-.138.517-.324.655-.559.138-.234.207-.542.207-.925zm-76.194-9.379a7.824 7.824 0 0 1-2.252.619 3.923 3.923 0 0 0 1.724-2.172 7.915 7.915 0 0 1-2.493.95 3.908 3.908 0 0 0-2.867-1.233 3.923 3.923 0 0 0-3.821 4.815 11.146 11.146 0 0 1-8.087-4.099 3.932 3.932 0 0 0-.528 1.969c0 1.361.688 2.562 1.745 3.261a3.921 3.921 0 0 1-1.777-.491v.048c0 1.9 1.351 3.491 3.149 3.848a3.9 3.9 0 0 1-1.036.139c-.25 0-.497-.026-.742-.069a3.939 3.939 0 0 0 3.662 2.728 7.876 7.876 0 0 1-5.808 1.623 11.104 11.104 0 0 0 6.016 1.762c7.216 0 11.167-5.979 11.167-11.167 0-.17-.005-.341-.011-.507a7.762 7.762 0 0 0 1.959-2.024z"></path>
</svg>
