<svg width="520" height="145" xmlns="http://www.w3.org/2000/svg" clip-rule="evenodd" fill-rule="evenodd" image-rendering="optimizeQuality" text-rendering="geometricPrecision" shape-rendering="geometricPrecision">

 <g>
  <title>Layer 1</title>
  <path stroke="null" id="svg_1" d="m518.26766,-7.50042l-518.03537,0c-6.18619,0 -11.23226,5.29773 -11.23226,11.79243l0,135.02551c0,6.4947 5.04607,11.79243 11.23226,11.79243l518.03537,0c6.18619,0 11.23226,-5.29773 11.23226,-11.79243l0,-135.02551c0,-6.4947 -5.04607,-11.79243 -11.23226,-11.79243z" fill="#0866FF"/>
  <path stroke="null" id="svg_2" d="m131.44999,144.37999l0,-145.87999l6.94836,0l0,145.87999l-6.94836,0zm49.87466,-58.54876l-0.17944,7.45204l4.16702,0l7.09789,-0.18839l0.67789,0.90011l-0.7377,9.37785l-7.89541,-0.18839l-3.54895,0l0,0.83731l0.48848,13.50159l-12.31165,0l0.61807,-12.21423l-0.61807,-29.37905l26.44762,0l0.67789,0.90011l-0.79752,9.37785l-9.79948,-0.37679l-4.28665,0zm49.78494,31.69211l-12.43128,0l-1.10655,-6.88686l-0.05981,-0.18839l-6.00131,-0.1256l-5.01438,0.25119l-1.04674,6.94966l-12.00262,0l12.00262,-41.59328l14.82383,0l10.83625,41.59328zm-15.43193,-16.46357l-2.69162,-13.62719l-0.7377,0l-3.42932,13.62719l3.42932,0.0628l3.42932,-0.0628zm36.36673,-25.84142c3.51904,0 6.81876,0.57565 9.91911,1.73741l-2.07354,10.22562l-0.79752,0.51285c-1.06668,-0.60705 -2.29286,-1.0885 -3.67854,-1.44436c-1.38568,-0.36632 -2.67168,-0.55472 -3.85798,-0.55472c-2.49224,0 -4.28665,0.76404 -5.38323,2.28166c-1.10655,1.52809 -1.65485,4.06094 -1.65485,7.6195c0,4.15514 0.62804,7.19038 1.8941,9.09526c1.26606,1.90488 3.24988,2.86778 5.94149,2.86778c1.14643,0 2.42245,-0.1256 3.82808,-0.35586c1.40562,-0.24073 2.64177,-0.56518 3.70845,-0.9943l0.97696,0.63845l-0.97696,10.16283c-2.45236,0.80591 -5.29351,1.2141 -8.51348,1.2141c-6.56954,0 -11.52411,-1.80021 -14.85374,-5.40064c-3.31966,-3.60042 -4.98448,-8.84407 -4.98448,-15.74139c0,-6.94966 1.78444,-12.32936 5.35333,-16.13911c3.57885,-3.80975 8.62314,-5.72509 15.1528,-5.72509zm41.58049,32.01657l0.66792,0.90011l-0.72773,9.38832l-27.92303,0l0.60811,-12.21423l-0.60811,-29.37905l28.41151,0l0.66792,0.90011l-0.79752,9.37785l-9.7297,-0.37679l-6.31035,0l-0.11963,5.85069l6.06112,0l6.37016,-0.19886l0.66792,0.90011l-0.72773,9.38832l-7.10786,-0.19886l-5.51283,0l-0.05981,2.44913l0.1296,3.60042l5.87171,0l10.16833,-0.38725zm31.10312,-11.12573c2.57199,0.77451 4.43618,1.92581 5.60255,3.44343s1.74457,3.50623 1.74457,5.94489c0,4.33307 -1.68475,7.49391 -5.05426,9.48251c-3.36951,1.98861 -8.39386,2.99338 -15.09299,2.99338c-3.70845,0 -8.09479,-0.157 -13.15901,-0.45005l0.60811,-12.21423l-0.60811,-29.37905l17.69489,-0.0628c4.48603,0 7.9951,0.91057 10.52721,2.73172c2.53211,1.82114 3.79817,4.45867 3.79817,7.93349c0,2.1456 -0.51839,4.04001 -1.56513,5.69369c-1.03677,1.65368 -2.54208,2.94104 -4.496,3.88302zm-6.42997,-7.7137c0,-1.49669 -0.49845,-2.53286 -1.49534,-3.11897c-1.00686,-0.57565 -2.87106,-0.86871 -5.61252,-0.86871l-0.54829,0l-0.23925,8.48821l4.58572,0.19886c1.14643,-0.38725 1.98382,-0.94197 2.51218,-1.67462c0.52835,-0.73264 0.79752,-1.73741 0.79752,-3.02478zm-4.03742,21.0897c1.66481,0 2.99069,-0.38725 3.9477,-1.16176c0.95702,-0.76404 1.43553,-1.88394 1.43553,-3.33877c0,-0.98384 -0.27913,-1.77928 -0.82742,-2.37586c-0.54829,-0.60705 -1.43553,-1.1199 -2.66171,-1.54902l-5.94149,0.13606l-0.05981,2.82591l0.18941,5.20178c2.03367,0.17793 3.3396,0.26166 3.9178,0.26166zm40.22471,-34.32963c5.75208,0 10.19824,1.78975 13.34842,5.36924c3.14022,3.57949 4.71531,8.62427 4.71531,15.13434c0,7.20085 -1.72463,12.77941 -5.17389,16.71476c-3.44926,3.94581 -8.34401,5.91349 -14.66433,5.91349c-5.76205,0 -10.2082,-1.81068 -13.34842,-5.43204c-3.14022,-3.62136 -4.71531,-8.74987 -4.71531,-15.396c0,-7.10665 1.72463,-12.61195 5.17389,-16.4845c3.44926,-3.88302 8.33404,-5.81929 14.66433,-5.81929zm-1.10655,10.28842c-1.58506,0 -2.79131,0.28259 -3.60876,0.86871c-0.81745,0.57565 -1.39565,1.59089 -1.74457,3.04571c-0.34891,1.46529 -0.51839,3.57949 -0.51839,6.37401c0,3.54809 0.17944,6.24841 0.54829,8.09049c0.36885,1.84208 0.98693,3.12944 1.86419,3.86208c0.87727,0.73264 2.17323,1.0885 3.88789,1.0885c1.59503,0 2.80127,-0.28259 3.61873,-0.86871c0.81745,-0.57565 1.39565,-1.60135 1.74457,-3.07711c0.33894,-1.48622 0.51839,-3.61089 0.51839,-6.39494c0,-3.51669 -0.17944,-6.19608 -0.54829,-8.03816c-0.36885,-1.84208 -0.9969,-3.12944 -1.87416,-3.86208c-0.87727,-0.72218 -2.17323,-1.0885 -3.88789,-1.0885zm41.09201,-10.28842c5.75208,0 10.19824,1.78975 13.33846,5.36924c3.15019,3.57949 4.71531,8.62427 4.71531,15.13434c0,7.20085 -1.72463,12.77941 -5.17389,16.71476c-3.43929,3.94581 -8.33404,5.91349 -14.66433,5.91349c-5.75208,0 -10.19824,-1.81068 -13.33846,-5.43204c-3.15019,-3.62136 -4.71531,-8.74987 -4.71531,-15.396c0,-7.10665 1.72463,-12.61195 5.17389,-16.4845c3.44926,-3.88302 8.33404,-5.81929 14.66433,-5.81929zm-1.10655,10.28842c-1.59503,0 -2.80127,0.28259 -3.61873,0.86871c-0.80748,0.57565 -1.39565,1.59089 -1.7346,3.04571c-0.34891,1.46529 -0.52835,3.57949 -0.52835,6.37401c0,3.54809 0.18941,6.24841 0.55826,8.09049c0.35888,1.84208 0.98693,3.12944 1.86419,3.86208c0.87727,0.73264 2.17323,1.0885 3.88789,1.0885c1.59503,0 2.79131,-0.28259 3.60876,-0.86871c0.81745,-0.57565 1.40562,-1.60135 1.74457,-3.07711c0.34891,-1.48622 0.52835,-3.61089 0.52835,-6.39494c0,-3.51669 -0.18941,-6.19608 -0.55826,-8.03816c-0.35888,-1.84208 -0.98693,-3.12944 -1.86419,-3.86208c-0.87727,-0.72218 -2.17323,-1.0885 -3.88789,-1.0885zm46.28584,10.15236c3.75829,6.17515 8.04494,12.58055 12.85995,19.22669l-0.17944,1.41296c-4.28665,0.98384 -8.37392,1.66415 -12.25184,2.0514l-1.34581,-0.76404c-4.16702,-7.50437 -7.56643,-13.86791 -10.22814,-19.09062l-0.11963,5.58903l0.48848,13.50159l-12.30168,0l0.60811,-12.21423l-0.60811,-29.37905l12.49109,0l-0.42866,17.35321l7.58637,-12.85268l2.08351,-4.50053l12.97957,0l-11.63376,19.66627z" fill-rule="nonzero" fill="#075CE6"/>
  <path id="svg_3" d="m177.98,81.64l-0.18,7.13l4.18,0l7.12,-0.19l0.68,0.86l-0.74,8.97l-7.92,-0.19l-3.56,0l0,0.8l0.49,12.9l-12.35,0l0.62,-11.67l-0.62,-28.07l26.53,0l0.68,0.86l-0.8,8.97l-9.83,-0.37l-4.3,0zm49.94,30.28l-12.47,0l-1.11,-6.57l-0.06,-0.18l-6.02,-0.13l-5.03,0.25l-1.05,6.63l-12.04,0l12.04,-39.74l14.87,0l10.87,39.74zm-15.48,-15.72l-2.7,-13.02l-0.74,0l-3.44,13.02l3.44,0.06l3.44,-0.06zm36.48,-24.69c3.53,0 6.84,0.55 9.95,1.66l-2.08,9.76l-0.8,0.49c-1.07,-0.57 -2.3,-1.03 -3.69,-1.38c-1.39,-0.35 -2.68,-0.52 -3.87,-0.52c-2.5,0 -4.3,0.72 -5.4,2.18c-1.11,1.45 -1.66,3.88 -1.66,7.28c0,3.97 0.63,6.86 1.9,8.69c1.27,1.82 3.26,2.73 5.96,2.73c1.15,0 2.43,-0.11 3.84,-0.34c1.41,-0.22 2.65,-0.54 3.72,-0.95l0.98,0.61l-0.98,9.71c-2.46,0.78 -5.31,1.17 -8.54,1.17c-6.59,0 -11.56,-1.72 -14.9,-5.16c-3.33,-3.44 -5,-8.46 -5,-15.05c0,-6.63 1.79,-11.77 5.37,-15.42c3.59,-3.64 8.65,-5.46 15.2,-5.46zm41.71,30.58l0.67,0.86l-0.73,8.97l-28.01,0l0.61,-11.67l-0.61,-28.07l28.5,0l0.67,0.86l-0.8,8.97l-9.76,-0.37l-6.33,0l-0.12,5.59l6.08,0l6.39,-0.18l0.67,0.85l-0.73,8.97l-7.13,-0.18l-5.53,0l-0.06,2.33l0.13,3.44l5.89,0l10.2,-0.37zm31.2,-10.62c2.58,0.73 4.45,1.83 5.62,3.28c1.17,1.46 1.75,3.35 1.75,5.68c0,4.14 -1.69,7.16 -5.07,9.06c-3.38,1.91 -8.42,2.86 -15.14,2.86c-3.72,0 -8.12,-0.14 -13.2,-0.43l0.61,-11.67l-0.61,-28.07l17.75,-0.06c4.5,0 8.02,0.87 10.56,2.61c2.54,1.74 3.81,4.27 3.81,7.59c0,2.04 -0.52,3.86 -1.57,5.43c-1.04,1.58 -2.55,2.82 -4.51,3.72zm-6.45,-7.37c0,-1.44 -0.5,-2.43 -1.5,-2.98c-1.01,-0.55 -2.88,-0.83 -5.63,-0.83l-0.55,0l-0.24,8.11l4.6,0.18c1.15,-0.37 1.99,-0.9 2.52,-1.6c0.53,-0.69 0.8,-1.65 0.8,-2.88zm-4.05,20.14c1.67,0 3,-0.36 3.96,-1.1c0.96,-0.74 1.44,-1.8 1.44,-3.2c0,-0.94 -0.28,-1.7 -0.83,-2.27c-0.55,-0.57 -1.44,-1.06 -2.67,-1.47l-5.96,0.12l-0.06,2.7l0.19,4.98c2.04,0.16 3.35,0.24 3.93,0.24zm40.35,-32.79c5.77,0 10.23,1.71 13.39,5.12c3.15,3.42 4.73,8.24 4.73,14.47c0,6.88 -1.73,12.2 -5.19,15.97c-3.46,3.76 -8.37,5.65 -14.71,5.65c-5.78,0 -10.24,-1.73 -13.39,-5.19c-3.15,-3.46 -4.73,-8.37 -4.73,-14.71c0,-6.8 1.73,-12.05 5.19,-15.76c3.46,-3.7 8.36,-5.55 14.71,-5.55zm-1.11,9.82c-1.59,0 -2.8,0.28 -3.62,0.83c-0.82,0.55 -1.4,1.53 -1.75,2.92c-0.35,1.39 -0.52,3.42 -0.52,6.08c0,3.4 0.18,5.98 0.55,7.74c0.37,1.76 0.99,2.99 1.87,3.68c0.88,0.7 2.18,1.05 3.9,1.05c1.6,0 2.81,-0.28 3.63,-0.83c0.82,-0.56 1.4,-1.54 1.75,-2.95c0.34,-1.41 0.52,-3.45 0.52,-6.11c0,-3.36 -0.18,-5.92 -0.55,-7.68c-0.37,-1.76 -1,-2.99 -1.88,-3.68c-0.88,-0.7 -2.18,-1.05 -3.9,-1.05zm41.22,-9.82c5.77,0 10.23,1.71 13.38,5.12c3.16,3.42 4.73,8.24 4.73,14.47c0,6.88 -1.73,12.2 -5.19,15.97c-3.45,3.76 -8.36,5.65 -14.71,5.65c-5.77,0 -10.23,-1.73 -13.38,-5.19c-3.16,-3.46 -4.73,-8.37 -4.73,-14.71c0,-6.8 1.73,-12.05 5.19,-15.76c3.46,-3.7 8.36,-5.55 14.71,-5.55zm-1.11,9.82c-1.6,0 -2.81,0.28 -3.63,0.83c-0.81,0.55 -1.4,1.53 -1.74,2.92c-0.35,1.39 -0.53,3.42 -0.53,6.08c0,3.4 0.19,5.98 0.56,7.74c0.36,1.76 0.99,2.99 1.87,3.68c0.88,0.7 2.18,1.05 3.9,1.05c1.6,0 2.8,-0.28 3.62,-0.83c0.82,-0.56 1.41,-1.54 1.75,-2.95c0.35,-1.41 0.53,-3.45 0.53,-6.11c0,-3.36 -0.19,-5.92 -0.56,-7.68c-0.36,-1.76 -0.99,-2.99 -1.87,-3.68c-0.88,-0.7 -2.18,-1.05 -3.9,-1.05zm46.43,9.71c3.77,5.89 8.07,12.01 12.9,18.36l-0.18,1.35c-4.3,0.94 -8.4,1.6 -12.29,1.97l-1.35,-0.74c-4.18,-7.16 -7.59,-13.25 -10.26,-18.24l-0.12,5.34l0.49,12.9l-12.34,0l0.61,-11.67l-0.61,-28.07l12.53,0l-0.43,16.59l7.61,-12.29l2.09,-4.3l13.02,0l-11.67,18.8z" fill-rule="nonzero" fill="#fff"/>
  <path id="svg_5" d="m170.66,39.31l-0.11,4.2l2.46,0l4.2,-0.11l0.39,0.51l-0.43,5.28l-4.67,-0.11l-2.1,0l0,0.47l0.29,7.61l-7.27,0l0.36,-6.88l-0.36,-16.55l15.63,0l0.4,0.51l-0.47,5.29l-5.79,-0.22l-2.53,0zm17.15,10.24l0.29,7.61l-7.27,0l0.36,-6.88l-0.36,-16.55l7.38,0l-0.4,15.82zm25.81,-0.03l0.29,7.64l-7.89,0l-6.59,-12.53l-0.43,0l-0.04,4.05l0.29,8.48l-6.59,0l0.36,-6.88l-0.36,-16.55l7.89,0l6.59,12.53l0.44,0l-0.22,-12.27l6.66,-0.4l-0.4,15.93zm15.31,-15.93c3.45,0 6.1,0.94 7.95,2.81c1.85,1.87 2.77,4.56 2.77,8.08c0,4.18 -1.08,7.39 -3.22,9.63c-2.15,2.25 -5.23,3.37 -9.23,3.37c-2.51,0 -5.46,-0.11 -8.84,-0.32l0.36,-6.88l-0.36,-16.55l10.57,-0.14zm-0.36,18.5c1.14,0 2,-0.45 2.59,-1.36c0.59,-0.91 0.89,-2.39 0.89,-4.47c0,-1.76 -0.12,-3.15 -0.37,-4.16c-0.24,-1.02 -0.62,-1.75 -1.16,-2.19c-0.52,-0.45 -1.26,-0.67 -2.2,-0.67c-0.92,0 -1.82,0.05 -2.72,0.14l-0.25,10.17l0.07,2.25c1.45,0.19 2.5,0.29 3.15,0.29zm38.3,-6.48l-0.04,3.73c-0.02,2.65 -0.92,4.69 -2.68,6.11c-1.76,1.43 -4.28,2.14 -7.56,2.14c-3.16,0 -5.58,-0.71 -7.26,-2.14c-1.68,-1.42 -2.48,-3.46 -2.41,-6.11l0.11,-3.73l-0.22,-11.88l7.28,0l-0.33,14.63c-0.02,1.23 0.22,2.12 0.71,2.68c0.49,0.55 1.3,0.83 2.41,0.83c1.13,0 1.95,-0.28 2.46,-0.83c0.51,-0.56 0.75,-1.45 0.72,-2.68l-0.32,-14.63l7.38,0l-0.25,11.88zm12.96,-12.31c2.29,0 4.56,0.42 6.8,1.27l-1.16,5.9l-1.01,0.43c-1.01,-0.62 -2.01,-1.12 -3,-1.48c-0.99,-0.36 -1.79,-0.55 -2.39,-0.55c-0.56,0 -1,0.11 -1.33,0.33c-0.32,0.22 -0.48,0.51 -0.48,0.87c0,0.46 0.24,0.85 0.74,1.18c0.49,0.32 1.32,0.75 2.48,1.28c1.35,0.6 2.46,1.17 3.33,1.68c0.87,0.52 1.63,1.24 2.28,2.14c0.65,0.91 0.98,2.02 0.98,3.35c0,1.47 -0.41,2.8 -1.22,4c-0.81,1.19 -1.96,2.14 -3.45,2.84c-1.5,0.7 -3.24,1.05 -5.22,1.05c-2.46,0 -5.04,-0.46 -7.74,-1.38l1.05,-6.29l0.72,-0.44c1.11,0.85 2.3,1.52 3.57,2.01c1.26,0.5 2.32,0.74 3.16,0.74c0.68,0 1.17,-0.11 1.47,-0.34c0.3,-0.23 0.45,-0.51 0.45,-0.85c0,-0.51 -0.26,-0.94 -0.78,-1.29c-0.51,-0.35 -1.35,-0.78 -2.51,-1.28c-1.33,-0.58 -2.42,-1.13 -3.28,-1.65c-0.85,-0.52 -1.6,-1.23 -2.22,-2.14c-0.63,-0.9 -0.94,-2.02 -0.94,-3.34c0,-1.52 0.41,-2.89 1.23,-4.11c0.82,-1.22 1.96,-2.18 3.43,-2.88c1.48,-0.7 3.15,-1.05 5.04,-1.05zm25.3,0c3.4,0 6.03,1.01 7.89,3.02c1.86,2.02 2.79,4.86 2.79,8.53c0,4.05 -1.02,7.19 -3.06,9.41c-2.04,2.22 -4.93,3.33 -8.67,3.33c-3.4,0 -6.03,-1.02 -7.89,-3.06c-1.86,-2.04 -2.79,-4.93 -2.79,-8.67c0,-4 1.02,-7.1 3.06,-9.28c2.04,-2.19 4.93,-3.28 8.67,-3.28zm-0.65,5.79c-0.95,0 -1.66,0.17 -2.14,0.49c-0.48,0.33 -0.83,0.9 -1.03,1.72c-0.21,0.82 -0.31,2.02 -0.31,3.58c0,2.01 0.11,3.53 0.33,4.56c0.21,1.04 0.58,1.77 1.1,2.18c0.52,0.41 1.29,0.61 2.3,0.61c0.94,0 1.65,-0.16 2.14,-0.48c0.48,-0.33 0.82,-0.91 1.03,-1.74c0.2,-0.84 0.3,-2.04 0.3,-3.6c0,-1.98 -0.1,-3.49 -0.32,-4.53s-0.58,-1.76 -1.1,-2.17c-0.52,-0.41 -1.29,-0.62 -2.3,-0.62zm34.68,10.43l0.28,7.64l-7.89,0l-6.58,-12.53l-0.44,0l-0.03,4.05l0.28,8.48l-6.58,0l0.36,-6.88l-0.36,-16.55l7.89,0l6.58,12.53l0.44,0l-0.22,-12.27l6.66,-0.4l-0.39,15.93z" fill-rule="nonzero" fill="#075CE6"/>
  <path id="svg_6" d="m169.64,38.08l-0.11,4.2l2.47,0l4.2,-0.11l0.39,0.51l-0.43,5.29l-4.67,-0.11l-2.1,0l0,0.47l0.29,7.6l-7.28,0l0.36,-6.88l-0.36,-16.54l15.64,0l0.4,0.51l-0.47,5.28l-5.79,-0.22l-2.54,0zm17.16,10.25l0.29,7.6l-7.28,0l0.37,-6.88l-0.37,-16.54l7.39,0l-0.4,15.82zm25.81,-0.04l0.29,7.64l-7.89,0l-6.59,-12.53l-0.43,0l-0.04,4.06l0.29,8.47l-6.59,0l0.36,-6.88l-0.36,-16.54l7.89,0l6.59,12.52l0.43,0l-0.21,-12.27l6.66,-0.4l-0.4,15.93zm15.31,-15.93c3.45,0 6.1,0.94 7.95,2.81c1.84,1.87 2.77,4.57 2.77,8.09c0,4.17 -1.08,7.38 -3.23,9.63c-2.14,2.24 -5.22,3.36 -9.23,3.36c-2.51,0 -5.45,-0.11 -8.83,-0.32l0.36,-6.88l-0.36,-16.54l10.57,-0.15zm-0.36,18.5c1.13,0 1.99,-0.45 2.59,-1.36c0.59,-0.9 0.88,-2.39 0.88,-4.47c0,-1.76 -0.12,-3.14 -0.36,-4.16c-0.24,-1.01 -0.63,-1.74 -1.16,-2.19c-0.53,-0.45 -1.26,-0.67 -2.2,-0.67c-0.92,0 -1.83,0.05 -2.72,0.15l-0.25,10.17l0.07,2.24c1.45,0.19 2.5,0.29 3.15,0.29zm38.3,-6.48l-0.04,3.73c-0.03,2.65 -0.92,4.69 -2.68,6.12c-1.76,1.42 -4.28,2.13 -7.56,2.13c-3.17,0 -5.59,-0.71 -7.26,-2.13c-1.68,-1.43 -2.48,-3.47 -2.41,-6.12l0.11,-3.73l-0.22,-11.87l7.28,0l-0.33,14.62c-0.02,1.23 0.21,2.13 0.71,2.68c0.49,0.56 1.29,0.83 2.4,0.83c1.14,0 1.96,-0.27 2.47,-0.83c0.5,-0.55 0.74,-1.45 0.72,-2.68l-0.33,-14.62l7.39,0l-0.25,11.87zm12.95,-12.31c2.3,0 4.56,0.43 6.81,1.27l-1.16,5.9l-1.01,0.44c-1.02,-0.63 -2.02,-1.13 -3.01,-1.49c-0.99,-0.36 -1.78,-0.54 -2.39,-0.54c-0.55,0 -0.99,0.11 -1.32,0.32c-0.32,0.22 -0.48,0.51 -0.48,0.87c0,0.46 0.24,0.85 0.74,1.18c0.49,0.33 1.32,0.75 2.47,1.29c1.36,0.6 2.47,1.16 3.34,1.68c0.86,0.52 1.62,1.23 2.28,2.13c0.65,0.91 0.97,2.02 0.97,3.35c0,1.47 -0.4,2.81 -1.21,4c-0.81,1.2 -1.96,2.14 -3.46,2.84c-1.49,0.7 -3.23,1.05 -5.21,1.05c-2.46,0 -5.04,-0.45 -7.75,-1.37l1.06,-6.3l0.72,-0.43c1.11,0.84 2.3,1.51 3.56,2c1.27,0.5 2.33,0.75 3.17,0.75c0.68,0 1.16,-0.12 1.47,-0.35c0.3,-0.23 0.45,-0.51 0.45,-0.85c0,-0.51 -0.26,-0.93 -0.78,-1.28s-1.35,-0.78 -2.51,-1.29c-1.33,-0.58 -2.42,-1.13 -3.28,-1.65c-0.86,-0.51 -1.6,-1.23 -2.22,-2.13c-0.63,-0.91 -0.95,-2.02 -0.95,-3.35c0,-1.52 0.41,-2.89 1.23,-4.11c0.82,-1.22 1.97,-2.18 3.44,-2.88c1.47,-0.7 3.15,-1.05 5.03,-1.05zm25.3,0c3.41,0 6.04,1.01 7.9,3.03c1.85,2.01 2.78,4.85 2.78,8.52c0,4.06 -1.02,7.19 -3.06,9.41c-2.03,2.22 -4.92,3.33 -8.66,3.33c-3.41,0 -6.04,-1.02 -7.9,-3.05c-1.85,-2.04 -2.78,-4.93 -2.78,-8.68c0,-4 1.02,-7.1 3.06,-9.28c2.03,-2.18 4.93,-3.28 8.66,-3.28zm-0.65,5.8c-0.94,0 -1.65,0.16 -2.13,0.48c-0.48,0.33 -0.83,0.9 -1.03,1.72c-0.21,0.83 -0.31,2.02 -0.31,3.59c0,2 0.11,3.52 0.32,4.56c0.22,1.04 0.59,1.76 1.11,2.17c0.52,0.41 1.28,0.62 2.3,0.62c0.94,0 1.65,-0.17 2.13,-0.49c0.48,-0.33 0.83,-0.91 1.04,-1.74c0.2,-0.83 0.3,-2.03 0.3,-3.6c0,-1.98 -0.11,-3.49 -0.32,-4.53c-0.22,-1.03 -0.59,-1.76 -1.11,-2.17c-0.52,-0.41 -1.28,-0.61 -2.3,-0.61zm34.68,10.42l0.29,7.64l-7.89,0l-6.59,-12.53l-0.43,0l-0.04,4.06l0.29,8.47l-6.59,0l0.36,-6.88l-0.36,-16.54l7.9,0l6.58,12.52l0.44,0l-0.22,-12.27l6.66,-0.4l-0.4,15.93zm-231.92,23.41c0,-22.2 -17.99,-40.19 -40.19,-40.19s-40.19,17.99 -40.19,40.19c0,18.85 12.97,34.67 30.48,39.01l0,-26.73l-8.29,0l0,-12.28l8.29,0l0,-5.29c0,-13.68 6.19,-20.02 19.62,-20.02c2.55,0 6.94,0.5 8.74,1l0,11.13c-0.95,-0.1 -2.6,-0.15 -4.64,-0.15c-6.59,0 -9.14,2.5 -9.14,8.99l0,4.34l13.13,0l-2.26,12.28l-10.87,0l0,27.62c19.9,-2.4 35.32,-19.35 35.32,-39.9z" fill-rule="nonzero" fill="#fff"/>
 </g>
</svg>