<?xml version='1.0' encoding='utf-8'?>
<svg xmlns="http://www.w3.org/2000/svg" viewBox="0 0 2e3 2e3"> <path transform="scale(1.9531)" d="m0 0h1024v1024h-1024v-1024z" fill="#FEFEFE"/> <path transform="scale(1.9531)" d="m873.37 342.1c2.934-4.911 7.661-10.41 13.324-12.099 2.093-0.624 5.547-0.495 7.401 0.769 1.575 1.074 2.415 2.472 2.63 4.345 0.686 5.97-5.22 16.453 0.146 21.029 1.788 1.525 5.105 2.495 7.43 2.164 8.817-1.256 21.375-19.416 29.706-13.627 1.994 1.386 3.695 4.834 4.068 7.195 0.053 0.336 0.089 0.674 0.133 1.011-0.097 4.968-0.782 10.327 2.883 14.266 1.556 1.672 4.533 3.593 5.184 5.781-0.208 1.747-0.706 3.141-2.086 4.295-2.733 2.284-7.626 2.371-10.965 1.963-6.163-0.754-11.978-3.457-17.644 0.888-1.006 0.771-1.521 1.462-1.988 2.658 0.079 6.873 10.751 6.117 0.019 17.319-3.418 1.246-6.298 2.179-10.008 2.057-5.82-0.19-14.401-5.377-17.678 1.858-1.383 3.055-1.819 6.699-2.06 10.022 0.496 1.282 0.848 2.31 2.164 2.991 4.368 2.263 14.592 0.521 19.114-0.878 0.299 1.006 0.48 1.23-0.119 2.189-2.079 3.336-6.877 4.796-9.802 7.202-2.886 0.124-5.765 0.282-8.654 0.206-7.077-2.484-13.844-7.274-21.908-8.608-1.337-1.687-2.399-3.618-3.518-5.454-5.065-7.661-10.551-14.385-17.178-20.736l-1.391-1.152c14.269-12.16 23.001-26.895 28.269-44.851l2.528-2.803z" fill="#84C730"/> <path transform="scale(1.9531)" d="m873.37 342.1c0.879 1.157 1.163 1.655 1.054 3.136-1.094 14.782-11.519 32.118-23.141 40.967-2.242 1.707-4.743 3.546-7.319 4.703l-1.391-1.152c14.269-12.16 23.001-26.895 28.269-44.851l2.528-2.803z" fill="#5BA402"/> <path transform="scale(1.9531)" d="m861.14 411.64c8.208-19.164 29.042-33.43 47.074-42.715 10.278-5.292 20.4-9.36 29.992-16.04-0.097 4.968-0.782 10.327 2.883 14.266 1.556 1.672 4.533 3.593 5.184 5.781-0.208 1.747-0.706 3.141-2.086 4.295-2.733 2.284-7.626 2.371-10.965 1.963-6.163-0.754-11.978-3.457-17.644 0.888-1.006 0.771-1.521 1.462-1.988 2.658 0.079 6.873 10.751 6.117 0.019 17.319-3.418 1.246-6.298 2.179-10.008 2.057-5.82-0.19-14.401-5.377-17.678 1.858-1.383 3.055-1.819 6.699-2.06 10.022 0.496 1.282 0.848 2.31 2.164 2.991 4.368 2.263 14.592 0.521 19.114-0.878 0.299 1.006 0.48 1.23-0.119 2.189-2.079 3.336-6.877 4.796-9.802 7.202-2.886 0.124-5.765 0.282-8.654 0.206-7.077-2.484-13.844-7.274-21.908-8.608-1.337-1.687-2.399-3.618-3.518-5.454z" fill="#5BA402"/> <path transform="scale(1.9531)" d="m219.64 285.19c-2.325-3.321-6.188-5.562-6.977-9.837-2.012-10.903 20.325-7.384 25.05-14.574 4.765-7.248-3.442-12.321-4.452-17.916-0.408-2.26 0.399-4.758 1.689-6.606 1.348-1.93 3.255-3.177 5.587-3.531 5.824-0.887 9.505 3.273 13.804 6.406 3.758 2.739 7.957 3.758 12.549 2.914 18.194-3.344 7.059-20.961 15.154-31.63 1.119-1.474 2.553-2.553 4.461-2.718 6.873-0.595 9.482 5.687 13.882 9.418 0.145 0.123 0.293 0.243 0.44 0.364 2.272 0.114 4.544-0.011 6.816-0.087 2.896-0.992 8.418-2.556 11.377-1.493 1.132 0.407 1.883 1.131 2.152 2.325 0.937 4.162-5.145 11.364-6.941 15.033-0.898 1.836-1.406 3.803-1.853 5.787 0.931 3.902 1.886 6.872 4.604 9.971-2.133 3.513-4.196 7.492-7.377 10.185-4.182 3.54-20.122 7.134-17.864 14.574 1.11 3.655 7.041 7.213 10.469 8.661 4.772 2.015 12.877 2.03 15.339 7.233 0.89 1.881 0.89 4.39 1.034 6.43-20.904-1.512-38.253 0.667-56.674 11.249-6.474-7.341-15.452-11.866-24.057-16.123-6.029-2.55-11.804-4.661-18.212-6.035z" fill="#84C730"/> <path transform="scale(1.9531)" d="m307.65 217.39c2.896-0.992 8.418-2.556 11.377-1.493 1.132 0.407 1.883 1.131 2.152 2.325 0.937 4.162-5.145 11.364-6.941 15.033-0.898 1.836-1.406 3.803-1.853 5.787 0.931 3.902 1.886 6.872 4.604 9.971-2.133 3.513-4.196 7.492-7.377 10.185-4.182 3.54-20.122 7.134-17.864 14.574 1.11 3.655 7.041 7.213 10.469 8.661 4.772 2.015 12.877 2.03 15.339 7.233 0.89 1.881 0.89 4.39 1.034 6.43-20.904-1.512-38.253 0.667-56.674 11.249-6.474-7.341-15.452-11.866-24.057-16.123 3.552-2.515 6.916-5.236 10.635-7.519 7.482-4.592 15.254-8.116 21.871-14.057 11.538-10.359 16.693-24.607 24.987-37.303 3.573-5.47 8.014-10.074 12.298-14.953z" fill="#73BF09"/> <path transform="scale(1.9531)" d="m599.98 840.18c6.307-1.026 12.679-2.921 18.85-4.568 27.291-7.283 52.463-17.814 77.325-31.137-0.578 11.481-5.328 19.232-13.695 26.862-38.864 35.442-139.46 43.089-189.48 40.577-43.181-2.168-123.21-12.683-153.66-46.305-4.853-5.358-6.245-11.356-7.612-18.224 12.286 5.181 24.107 11.322 36.606 16.049q5.524 2.103 11.107 4.043 5.582 1.941 11.22 3.717 5.637 1.776 11.324 3.387 5.687 1.61 11.418 3.054 5.731 1.443 11.503 2.719 5.771 1.275 11.577 2.381t11.642 2.042q5.836 0.935 11.697 1.7 5.86 0.765 11.741 1.358 5.881 0.592 11.776 1.013 5.896 0.42 11.801 0.668t11.815 0.323 11.82-0.022q5.909-0.098 11.814-0.369 5.904-0.27 11.798-0.713 5.894-0.444 11.772-1.059c10.383-1.057 36.32-3.621 45.404-7.289 0.151-0.061 0.294-0.138 0.441-0.207z" fill="#31864C"/> <path transform="scale(1.9531)" d="m523.37 178c0.082-0.215 0.168-0.429 0.244-0.646 1.067-3.053-0.774-5.556 2.219-7.986 6.929-1.323 10.218 9.849 20.65 4.611 2.032-1.02 3.912-2.4 5.218-4.283 1.941-2.798 2.304-6.737 1.635-10.005-0.77-3.756-5.139-9.899-2.675-13.509 1.17-1.715 3.682-2.455 5.652-2.654 3.906-0.395 7.935 1.418 10.823 3.954 13.61 11.946 0.252 38.06 27.979 36.877 7.915-0.337 20.221-4.759 26.874 0.947 1.18 1.012 1.81 2.058 1.989 3.638 0.906 8.003-16.891 19.658-8.151 28.34 1.243 1.236 2.617 1.758 4.384 1.622 5.237-0.403 11.956-7.034 16.535-3.449 0.895 1.881 1.305 3.427 0.541 5.452-0.573 1.519-2.163 3.354-1.833 4.983 0.026 0.127 0.105 0.238 0.158 0.357 1.729 0.59 3.073 0.983 4.373 2.305 0.835 1.872 0.435 3.522 0.012 5.451-12.798 17.976-18.343 27.848-26.796 48.5-1.744-0.612-3.455-1.329-5.172-2.011l-6.998-2.24c-13.892-3.242-26.788-3.373-40.873-1.707-1.497-7.024-2.104-14.413-2.985-21.538-1.565-15.425-5.716-29.717-11.69-43.958-0.892-2.762-2.585-5.64-3.818-8.296-5.425-8.867-11.334-17.023-18.295-24.755z" fill="#84C730"/> <path transform="scale(1.9531)" d="m541.66 202.75c6.701 2.359 12.172 5.585 17.484 10.303l-8.015 1.135c-2.059-0.895-3.829-1.828-5.651-3.142-0.892-2.762-2.585-5.64-3.818-8.296z" fill="#FEFEFE"/> <path transform="scale(1.9531)" d="m588.93 246.48c-2.053-4.338-3.296-9.488-4.824-14.056q-6.22-18.307-11.621-36.872c6.955 13.992 12.96 28.393 19.843 42.412 2.142-8.653 5.151-16.765 8.98-24.799-1.935 6.726-6.213 24.389-3.816 30.606 0.462 1.199 1.265 2.237 2.525 2.657 7.985 2.664 27.402-15.968 35.006-19.892 0.195-0.101 0.392-0.197 0.588-0.295 1.729 0.59 3.073 0.983 4.373 2.305 0.835 1.872 0.435 3.522 0.012 5.451-12.798 17.976-18.343 27.848-26.796 48.5-1.744-0.612-3.455-1.329-5.172-2.011l-6.998-2.24c-13.892-3.242-26.788-3.373-40.873-1.707-1.497-7.024-2.104-14.413-2.985-21.538l0.823 0.371c7.651-1.325 23.848-0.584 29.369-5.51 1.245-1.111 1.377-1.769 1.566-3.382z" fill="#3B962F"/> <path transform="scale(1.9531)" d="m589.94 246.16c0.26-0.188 0.522-0.374 0.78-0.566 0.928-0.692 1.384-1.349 1.983-2.324l0.835-0.141c1.266 3.061 1.982 6.352 3.141 9.468 2.134 5.738 4.781 11.301 7.277 16.89 1.323 2.96 4.187 7.775 4.068 10.999l-6.998-2.24c-1.466-3.104-11.506-28.575-11.486-30.771 4e-3 -0.458 0.266-0.877 0.4-1.315z" fill="#297900"/> <path transform="scale(1.9531)" d="m909.77 536.83c18.121-12.472 32.548-28.295 41.836-48.323l0.528 0.048c-2.134 8.603-5.193 17.018-8.077 25.395-6.13 17.808-12.799 34.963-20.863 51.993q-1.983 4.297-4.044 8.556-2.061 4.26-4.2 8.481t-4.356 8.402q-2.216 4.181-4.508 8.32-2.293 4.14-4.661 8.237t-4.811 8.15q-2.442 4.052-4.959 8.06-2.517 4.007-5.107 7.967-2.59 3.961-5.252 7.873t-5.396 7.775q-2.733 3.862-5.537 7.674t-5.677 7.572q-2.874 3.76-5.815 7.466-2.942 3.707-5.952 7.359-3.009 3.651-6.085 7.248-3.076 3.596-6.217 7.135-3.141 3.538-6.347 7.019t-6.475 6.902q-3.269 3.422-6.6 6.782-3.332 3.361-6.724 6.66-3.393 3.299-6.845 6.536-3.452 3.236-6.963 6.408-3.512 3.173-7.08 6.28-3.569 3.107-7.194 6.149-3.625 3.041-7.306 6.016-3.68 2.974-7.415 5.88-3.734 2.907-7.521 5.744t-7.626 5.605q-3.838 2.767-7.727 5.464-3.888 2.696-7.826 5.321-3.937 2.625-7.922 5.177t-8.016 5.03c-7.502 4.523-21.075 12.325-28.872 15.288-24.862 13.323-50.034 23.854-77.325 31.137-6.171 1.647-12.543 3.542-18.85 4.568l-0.118-0.548c2.998-0.934 13.868-2.841 15.391-4.118l-0.514-0.419c-1.997 0.14-3.657 0.973-5.459 1.766-1.019-0.202-1.259-0.025-1.92-0.88 1.007-1.503 2.699-2.423 2.972-4.198-0.367-0.442-0.461-0.615-1.021-0.949-1.767-1.055-3.78-0.793-5.499-1.506-1.92-0.797-3.64-2.473-5.665-2.843-0.853-0.156-1.519-0.298-2.346-0.586-0.686-1.176-0.756-1.312-0.69-2.664 3.13-4.255 13.569-5.627 18.55-7.193q14.94-4.822 29.501-10.69t28.67-12.753c90.932-43.831 174.97-127.95 220.5-217.78 6.175-12.184 12.922-25.092 17.431-37.998z" fill="#2C3A29"/> <path transform="scale(1.9531)" d="m410.99 192.51c1.767-2.086 3.525-3.946 5.586-5.748-4.808 25.892-5.559 52.212-0.817 78.201 0.644 3.021 1.144 6.226 2.096 9.156 2.441 8.033 4.294 16.396 7.08 24.29-13.158 13.253-25.652 27.127-38.849 40.327-3.463-4.921-7.177-9.528-11.121-14.063l-6.834-6.932c-9.238-7.137-18.491-12.382-29.236-16.868-6.707-1.977-13.396-3.694-20.31-4.777-0.144-2.04-0.144-4.549-1.034-6.43-2.462-5.203-10.567-5.218-15.339-7.233-3.428-1.448-9.359-5.006-10.469-8.661-2.258-7.44 13.682-11.034 17.864-14.574 3.181-2.693 5.244-6.672 7.377-10.185 1.564 1.425 3.3 3.015 5.193 3.976 1.528 0.776 2.991 1.013 4.627 0.364 2.25-0.893 3.271-3.771 4.2-5.8-0.339-7.621-4.159-15.48-1.234-23.01 3.771-9.708 14.43-5.322 21.639-8.921 10.087-5.036 0.577-17.782 3.915-25.26 0.611-1.367 1.317-1.943 2.696-2.489 9.016-3.569 9.758 9.919 16.025 12.173 6.899 2.482 13.738-8.429 19.774-10.625 6.183-2.25 11.629 0.582 17.171 3.089z" fill="#84C730"/> <path transform="scale(1.9531)" d="m410.99 192.51c1.767-2.086 3.525-3.946 5.586-5.748-4.808 25.892-5.559 52.212-0.817 78.201 0.644 3.021 1.144 6.226 2.096 9.156 2.441 8.033 4.294 16.396 7.08 24.29-13.158 13.253-25.652 27.127-38.849 40.327-3.463-4.921-7.177-9.528-11.121-14.063l-6.834-6.932c-9.238-7.137-18.491-12.382-29.236-16.868 4.604-2.587 11.192-2.55 16.204-4.762 14.322-6.319 3.35-21.807 8.63-34.703l0.27-0.643c8.555-8.079 18.785-2.567 28.776-5.09 16.436-4.15 3.898-30.376 6.535-42.496 1.855-8.523 7.589-13.429 11.68-20.669z" fill="#3B962F"/> <path transform="scale(1.9531)" d="m415.76 264.96c0.644 3.021 1.144 6.226 2.096 9.156-1.965 5.125-36.33 42.365-42.89 50.554l-6.834-6.932c3.353-6.167 10.147-11.836 14.961-16.991 11.033-11.816 22.401-23.284 32.667-35.787z" fill="#84C730"/> <path transform="scale(1.9531)" d="m417.86 274.12c2.441 8.033 4.294 16.396 7.08 24.29-13.158 13.253-25.652 27.127-38.849 40.327-3.463-4.921-7.177-9.528-11.121-14.063 6.56-8.189 40.925-45.429 42.89-50.554z" fill="#3B962F"/> <path transform="scale(1.9531)" d="m145.87 293.26c0.557-0.394 1.101-0.771 1.685-1.124 22.704-13.73 47.077-13.09 72.085-6.954 6.408 1.374 12.183 3.485 18.212 6.035 8.605 4.257 17.583 8.782 24.057 16.123-12.044 7.725-20.957 16.206-29.206 27.87-3.281 5.619-6.034 10.92-8.102 17.12-0.624 2.41-1.313 4.82-1.86 7.247-2.123 11.028-3.495 22.042-2.18 33.262-2.568 0.038-15.126-4.86-17.556-6.589-4.26 2.508-4.611 7.521-6.516 11.654-6.322-3.667-12.34-8.37-18.269-12.652-1.325-1.175-2.604-2.527-4.31-3.1l-1.082-2.865c-4.759-0.109-9.49 0.348-14.196 1.038-7.741 8.668-18.341 24.97-20.964 36.343l-1.817-1.058c-0.404-0.419-0.835-0.916-1.346-1.209-6.522-3.748-18.623 11.253-25.672 12.702-1.859 0.382-3.581 0.136-5.127-1.008-4.5825-3.389-5.1265-12.451-6.0681-17.687-0.2873-0.905-0.5436-1.895-1.1702-2.641-2.619-3.114-11.507-1.314-15.439-1.755-0.2289-0.025-0.4573-0.056-0.686-0.084-0.8162-0.598-1.6575-1.203-2.3932-1.9-1.4386-1.362-2.4959-3.424-2.5145-5.428-0.0368-3.971 2.9293-6.823 5.478-9.468 12.675-11.323 22.87-1.296 30.068-5.098 5.943-3.141-1.452-15.624 0.811-21.123 0.532-1.292 1.503-2.132 2.816-2.574 7.474-2.514 13.524 6.449 19.638 9.197 3.047 1.369 6.501 1.481 9.588 0.133 3.651-1.593 4.722-4.707 5.964-8.176-1.359-6.66-4.554-12.796-7.147-19.037-4.391-10.572-5.431-20.724-5.124-32.045 0.074-2.732-0.064-6.025 0.98-8.572 2.032-2.651 4.634-4.695 7.363-6.577z" fill="#84C730"/> <path transform="scale(1.9531)" d="m172.83 379.29c7.717 0.361 24.193 1.289 30.286 6.467l-0.109 0.496c-4.26 2.508-4.611 7.521-6.516 11.654-6.322-3.667-12.34-8.37-18.269-12.652-1.325-1.175-2.604-2.527-4.31-3.1l-1.082-2.865z" fill="#5BA402"/> <path transform="scale(1.9531)" d="m145.01 303.27c5.341-0.429 13.158 4.517 17.797 7.028q8.072 4.334 15.913 9.073 7.841 4.74 15.431 9.873 7.589 5.132 14.907 10.645t14.346 11.391q0.615 0.513 1.203 1.058c-0.624 2.41-1.313 4.82-1.86 7.247-2.323-2.341-4.267-5.067-6.638-7.414-11.009-10.899-23.713-20.285-36.868-28.409-11.296-6.976-23.251-13.034-34.231-20.492z" fill="#5BA402"/> <path transform="scale(1.9531)" d="m80.916 387.14c8.1477 3.109 16.614 8.691 21.449 16.111 1.171 1.796 1.882 4.4 3.53 5.774 3.206 2.673 11.09-8.549 13.657-10.785q2.044-1.745 4.202-3.346 2.158-1.602 4.421-3.052t4.619-2.742 4.796-2.42q2.439-1.129 4.949-2.088 2.511-0.959 5.081-1.744t5.188-1.393q2.618-0.607 5.271-1.035l0.556-0.087c-7.741 8.668-18.341 24.97-20.964 36.343l-1.817-1.058c-0.404-0.419-0.835-0.916-1.346-1.209-6.522-3.748-18.623 11.253-25.672 12.702-1.859 0.382-3.581 0.136-5.127-1.008-4.5825-3.389-5.1265-12.451-6.0681-17.687-0.2873-0.905-0.5436-1.895-1.1702-2.641-2.619-3.114-11.507-1.314-15.439-1.755-0.2289-0.025-0.4573-0.056-0.686-0.084-0.8162-0.598-1.6575-1.203-2.3932-1.9-1.4386-1.362-2.4959-3.424-2.5145-5.428-0.0368-3.971 2.9293-6.823 5.478-9.468z" fill="#5BA402"/> <path transform="scale(1.9531)" d="m138.51 299.84c2.032-2.651 4.634-4.695 7.363-6.577 0.23 0.111 0.459 0.226 0.691 0.333 4.252 1.965 15.515 3.656 21.007 5.45 23.392 7.64 46.401 20.105 65.135 36.167-3.281 5.619-6.034 10.92-8.102 17.12q-0.588-0.545-1.203-1.058-7.028-5.878-14.346-11.391t-14.907-10.645q-7.59-5.133-15.431-9.873-7.841-4.739-15.913-9.073c-4.639-2.511-12.456-7.457-17.797-7.028-2.234-0.745-4.432-2.271-6.497-3.425z" fill="#73BF09"/> <path transform="scale(1.9531)" d="m145.87 293.26c0.557-0.394 1.101-0.771 1.685-1.124 22.704-13.73 47.077-13.09 72.085-6.954 6.408 1.374 12.183 3.485 18.212 6.035 8.605 4.257 17.583 8.782 24.057 16.123-12.044 7.725-20.957 16.206-29.206 27.87-18.734-16.062-41.743-28.527-65.135-36.167-5.492-1.794-16.755-3.485-21.007-5.45-0.232-0.107-0.461-0.222-0.691-0.333z" fill="#5BA402"/> <path transform="scale(1.9531)" d="m786.81 273.53c22.022-9.285 47.184-10.258 69.438-1.118q4.849 2.035 9.538 4.413c7.954 9.955 9.113 40.337 7.715 52.8q-0.911 7.71-2.665 15.272c-5.268 17.956-14 32.691-28.269 44.851-17.959-15.087-38.919-22.805-62.396-22.299-3.864 0.433-7.633 0.674-11.522 0.698-4.498 0.318-8.218 1.515-12.398 3.128l-0.442-6.277c0.733-0.3 1.449-0.696 2.162-1.045 0.772-1.27 0.795-1.189 0.5-2.638-1.051-1.351-1.876-1.718-3.468-2.3-6.16-1.107-12.412-1.912-18.594-2.94-6e-3 -5.965 0.114-11.813 1.155-17.711 3.631-20.564 16.693-40.848 32.865-53.843 5.168-4.153 10.998-7.184 16.381-10.991z" fill="#297900"/> <path transform="scale(1.9531)" d="m821.55 311.59c-0.47-6.959-0.778-13.791-0.196-20.762 0.878 6.336 1.799 12.649 2.233 19.034l-2.037 1.728z" fill="#61AF70"/> <path transform="scale(1.9531)" d="m823.59 309.86c6.428-3.903 16.578-13.527 22.766-15.591-3.407 3.815-9.01 11.307-12.916 13.815-1.499 1.649-2.983 3.265-4.616 4.784q7.749-0.391 15.507-0.55c-6.045 3.788-12.258 4.063-19.16 4.092-8.179 5.895-18.299 18.964-24.686 27.126 16.708 2.066 32.631-0.611 47.965-7.396-15.127 12.094-35.561 14.464-54.311 14.341-4.624 5.605-9.667 11.125-13.963 16.969-3.864 0.433-7.633 0.674-11.522 0.698-4.498 0.318-8.218 1.515-12.398 3.128l-0.442-6.277c0.733-0.3 1.449-0.696 2.162-1.045 0.772-1.27 0.795-1.189 0.5-2.638-1.051-1.351-1.876-1.718-3.468-2.3-1.101-4.572-2.701-10.946-0.791-15.47l0.923-0.439c3.208 1.751 5.514 8.659 6.542 12.076 1.233 4.101 2.415 8.461 2.944 12.717 5.855-6.885 12.962-13.057 18.156-20.451 7.812-11.119 9.458-38.642 9.959-52.138 2.872 14.102 2.991 27.106 2.236 41.404 4.271-5.271 25.764-23.411 26.576-25.127l2.037-1.728z" fill="#84C730"/> <path transform="scale(1.9531)" d="m865.79 276.83c7.954 9.955 9.113 40.337 7.715 52.8q-0.911 7.71-2.665 15.272c-5.268 17.956-14 32.691-28.269 44.851-17.959-15.087-38.919-22.805-62.396-22.299 4.296-5.844 9.339-11.364 13.963-16.969 18.75 0.123 39.184-2.247 54.311-14.341-15.334 6.785-31.257 9.462-47.965 7.396 6.387-8.162 16.507-21.231 24.686-27.126 6.902-0.029 13.115-0.304 19.16-4.092q-7.758 0.159-15.507 0.55c1.633-1.519 3.117-3.135 4.616-4.784 3.906-2.508 9.509-10 12.916-13.815 2.984-2.065 5.821-5.66 8.463-8.228 3.462-3.365 7.137-6.299 10.972-9.215z" fill="#2A6501"/> <path transform="scale(1.9531)" d="m261.91 307.34c18.421-10.582 35.77-12.761 56.674-11.249 6.914 1.083 13.603 2.8 20.31 4.777 10.745 4.486 19.998 9.731 29.236 16.868l6.834 6.932c3.944 4.535 7.658 9.142 11.121 14.063 5.814 9.315 10.101 17.822 12.726 28.58-2.88 5.822-5.058 11.482-6.781 17.743q-1.925 8.682-3.583 17.419c-0.521 2.699-0.782 5.825-1.656 8.387-1.057 6.669-1.801 13.426-5.016 19.485-2.624-0.443-5.22-1.019-7.82-1.584-6.268-0.937-12.619-1.396-18.903-2.282-18.118-1.028-50.482-1.184-66.895 6.088l-1.505 1.748c-2.641 3.684-1.084 12.754-0.831 17.078-0.799-0.452-1.371-0.972-2.03-1.607-5.552-2.716-10.67-6.399-16.051-9.451-13.721-7.783-27.533-15.566-40.946-23.876-3.05-7.844-4.918-15.327-6.232-23.62-1.315-11.22 0.057-22.234 2.18-33.262 0.547-2.427 1.236-4.837 1.86-7.247 2.068-6.2 4.821-11.501 8.102-17.12 8.249-11.664 17.162-20.145 29.206-27.87z" fill="#F4754F"/> <path transform="scale(1.9531)" d="m384.89 409.41c1.241 0.428 1.326 0.299 1.905 1.453-1.057 6.669-1.801 13.426-5.016 19.485-2.624-0.443-5.22-1.019-7.82-1.584 4.713-5.677 8.98-12.168 10.931-19.354z" fill="#DA2209"/> <path transform="scale(1.9531)" d="m257.43 426.46c-8.207-5.114-15.595-22.911-17.786-32.135-4.081-17.182-1.176-37.527 8.098-52.543 9.852-15.953 28.557-26.469 46.465-30.652 20.632-4.819 40.442-3.576 58.62 7.76 16.457 10.262 30.854 28.892 35.372 47.908 1.37 5.766 0.837 11.704 2.138 17.385l1.699 0.874q-1.925 8.682-3.583 17.419c-0.521 2.699-0.782 5.825-1.656 8.387-0.579-1.154-0.664-1.025-1.905-1.453-1e-3 -0.308-9e-3 -0.616-4e-3 -0.924 0.051-3.669 2.769-5.857 3.31-9.224 2.759-17.186-0.545-40.256-12.623-53.386-15.615-16.975-38.703-32.376-62.386-33.155-19.129-0.629-40.748 6.545-54.721 19.842-12.048 11.466-17.643 27.673-17.949 44.064q-0.032 2.516 0.108 5.028 0.139 2.512 0.449 5.009t0.789 4.967q0.478 2.47 1.124 4.902 0.645 2.432 1.455 4.814 0.809 2.382 1.778 4.704 0.97 2.322 2.095 4.573 1.125 2.25 2.4 4.419c2.067 3.469 5.627 7.586 6.713 11.417z" fill="#EF4626"/> <path transform="scale(1.9531)" d="m278.41 375.87c0.399 0.38 0.809 0.763 1.175 1.177 1.616 1.829-0.919 4.648-1.066 6.993l0.578 0.507 2.144-0.275c-0.231 1.3-1.996 2.858-2.93 3.8-3.742 3.768-8.883 8.902-14.593 8.737-2.86-0.083-5.309-1.598-7.117-3.746-5.985-7.111-6.899-20.525-6.006-29.384 1.206-11.946 7.054-20.209 16.29-27.611 12.455-9.98 31.617-13.11 47.096-11.445 0.69 0.412 1.356 0.824 1.984 1.328 2.158 1.729 3.092 3.801 3.348 6.53 0.761 8.102-5.681 22.494-11.074 28.422-1.042 1.146-1.883 1.938-3.456 1.973-0.556-3.37-0.357-7.017-0.398-10.438-0.348 2.581-0.177 6.952-2.007 8.948l-0.786-0.153c-0.341-0.775-0.583-1.406-0.785-2.237-0.198 0.793-0.401 1.43-0.719 2.194-0.79 0.163-1.44 0.243-2.252 0.126-2.089-0.299-4.045-2.46-5.081-4.158-0.485 0.458-0.981 0.997-1.515 1.393-0.327 1.47-0.225 1.935-1.415 2.919-1.193-0.086-2.102-0.142-3.223-0.602-0.627 0.83-1.245 1.87-2.057 2.515-1.172 1.665-1.698 2.151-3.745 2.519 0.02 1.554 0.102 3.315-0.32 4.824l0.191 1.127c-0.791 0.98-1.446 1.347-2.576 1.887l0.662 0.768-0.347 1.362z" fill="#DA2209"/> <path transform="scale(1.9531)" d="m291.24 358.55c-1.186-3.98-4.756-10.547-2.868-14.602 1.112-0.693 1.089-0.734 2.378-0.55 2.379 2.65 1.606 10.127 2.005 13.759-0.485 0.458-0.981 0.997-1.515 1.393z" fill="#F4CC27"/> <path transform="scale(1.9531)" d="m278.41 375.87c-3.712 0.711-6.778 3.429-10.429 3.941-1.504 0.211-2.262-0.172-3.444-1.046-0.366-1.354-0.436-1.586-0.057-2.922 2.645-2.341 10.005-1.65 13.615-2.103l0.662 0.768-0.347 1.362z" fill="#F4CC27"/> <path transform="scale(1.9531)" d="m300.81 359c0.61-4.557-0.991-11.22 1.413-15.292 0.429-0.725 0.352-0.491 1.3-0.681 0.788 0.45 0.529 0.2 1.087 0.928 1.232 1.603 0.069 6.482-0.222 8.487-0.348 2.581-0.177 6.952-2.007 8.948l-0.786-0.153c-0.341-0.775-0.583-1.406-0.785-2.237z" fill="#F4CC27"/> <path transform="scale(1.9531)" d="m284.55 363.38c-2.704-3.142-5.995-5.824-8.496-9.139-1.137-1.507-1.786-2.577-1.519-4.48 1.027-0.758 1.33-0.669 2.628-0.729 3.37 1.244 6.152 8.685 8.976 11.393 0.155 0.148 0.312 0.293 0.468 0.44-0.627 0.83-1.245 1.87-2.057 2.515z" fill="#F4CC27"/> <path transform="scale(1.9531)" d="m280.48 370.72c-4.118-1.77-12.559-4-15.268-7.563-0.126-1.409-0.137-1.63 0.481-2.89 2.886-1.231 11.691 4.372 15.107 5.629 0.02 1.554 0.102 3.315-0.32 4.824z" fill="#F4CC27"/> <path transform="scale(1.9531)" d="m320.77 376.63c1.303-10.99 6.867-23.674 15.704-30.709 3.774-3.004 8.289-4.568 13.119-3.802 8.085 1.281 14.537 8.067 18.964 14.527 7.357 10.738 11.061 22.878 8.625 35.843-2.374 12.636-11.739 26.56-22.13 33.99-18.118-1.028-50.482-1.184-66.895 6.088-3.208-2.402-6.203-5.023-8.477-8.353-2.141-3.134-3.656-7.01-2.732-10.834 1.222-5.056 6.427-9.132 10.804-11.578 2.524-1.41 5.12-2.282 7.98-1.496 0.966 0.876 1.469 1.174 1.497 2.593 0.027 1.396-0.863 2.419-1.689 3.428-0.108 0.133-0.22 0.263-0.33 0.394l0.812 1.346c1.607-0.543 2.451-1.042 4.135-0.713 1.31 2.298 0.23 3.901 2.804 5.302l0.538 0.203 0.769-1.355 0.987-0.242c1.468 0.995 2.024 2.386 2.842 3.889 1.519-0.181 2.64-0.392 4.094 0.249l1.136-0.739 1.15 0.269c0.796 0.873 2.047 2.425 3.146 2.891 1.637 0.695 2.855-0.22 4.382-0.83 1.109 0.928 2.253 1.89 3.539 2.565 1.372 0.721 2.355 0.661 3.78 0.189 3.634-3.911 2.012-11.989 4.4-17.066 0.062-0.133 0.129-0.263 0.194-0.395l1.018-1.682c1.3-2.095 2.526-4.208 4.17-6.056l1.063-1.914c1.302-1.585 2.31-2.947 4.199-3.852l0.416-1.266-0.844-0.671c-0.621-1.548 0.75-4.972 1.052-6.724l-0.057-1.826c-0.658-0.015-0.946-0.212-1.522-0.506-0.763-1.33-0.795-2.299-0.837-3.78l-2.082-2.487c-0.265 0.011-0.529 0.037-0.794 0.034-1.459-0.013-1.552-0.267-2.599-1.24-1-0.067-2.063 0.044-3.067 0.076-4.229 2.431-8.934 3.981-13.264 6.24z" fill="#DA2209"/> <path transform="scale(1.9531)" d="m302.96 412.66 0.538 0.203c-0.585 3.655-1.826 9.466-4.718 11.935-0.824 0.704-1.009 0.68-2.021 0.6l-0.482-1.133c0.329-4.627 3.661-8.345 6.683-11.605z" fill="#F4CC27"/> <path transform="scale(1.9531)" d="m308.1 415.16c1.519-0.181 2.64-0.392 4.094 0.249-0.263 3.002-0.137 8.266-1.939 10.734-1.321 0.213-1.787 0.56-2.989-0.161-0.465-3.208 0.73-6.853 0.821-10.169l0.013-0.653z" fill="#F4CC27"/> <path transform="scale(1.9531)" d="m295.21 406.72 0.812 1.346c-2.136 2.229-6.723 10.139-8.653 10.851l-1.471-0.745c-0.643-1.002-1.055-1.394-0.661-2.649 1.028-3.274 7.2-6.808 9.973-8.803z" fill="#F4CC27"/> <path transform="scale(1.9531)" d="m334.94 400.61c3.178 2.047 9.475 4.795 10.685 8.437-0.353 1.36-0.486 1.451-1.545 2.394-3.426-0.589-7.779-6.537-10.158-9.149l1.018-1.682z" fill="#F4CC27"/> <path transform="scale(1.9531)" d="m334.04 370.39c-0.141-4.095-0.654-8.69 2.236-12.07 0.297-0.347 0.513-0.509 0.873-0.825l0.973 0.191c1.159 1.829 1.095 4.388 0.606 6.442-0.493 2.072-1.064 4.13-1.621 6.186-1-0.067-2.063 0.044-3.067 0.076z" fill="#F4CC27"/> <path transform="scale(1.9531)" d="m340.17 392.64c3.633 2.003 11.856 5.174 13.576 8.906-0.21 1.35-0.62 1.937-1.391 3.017-1.375 0.146-2.745-1.18-3.808-2.034-3.215-2.58-6.105-5.54-9.44-7.975l1.063-1.914z" fill="#F4CC27"/> <path transform="scale(1.9531)" d="m344.94 378.3c4.428-0.779 12.537-3.704 16.74-2.342 0.456 1.199 0.275 2.198 0.133 3.433-0.432 0.583-0.394 0.833-1.146 0.946-5.143 0.767-10.464-0.516-15.67-0.211l-0.057-1.826z" fill="#EDB631"/> <path transform="scale(1.9531)" d="m340.5 371.52c3.293-2.699 7.013-7.593 11.24-8.382 1.347 0.445 1.635 0.464 2.513 1.549-0.187 1.77-1.415 2.777-2.74 3.83-2.723 2.163-5.907 3.795-8.931 5.49l-2.082-2.487z" fill="#F4CC27"/> <path transform="scale(1.9531)" d="m344.79 387.52c5.042 0.382 14.004-0.046 18.005 2.992 0.586 1.278 0.505 1.295 0.139 2.669-0.907 0.844-1.244 1.379-2.572 1.386-3.192 0.018-11.983-4.729-15.988-5.781l0.416-1.266z" fill="#F4CC27"/> <path transform="scale(1.9531)" d="m261.91 307.34c18.421-10.582 35.77-12.761 56.674-11.249 6.914 1.083 13.603 2.8 20.31 4.777 10.745 4.486 19.998 9.731 29.236 16.868l6.834 6.932c3.944 4.535 7.658 9.142 11.121 14.063 5.814 9.315 10.101 17.822 12.726 28.58-2.88 5.822-5.058 11.482-6.781 17.743l-1.699-0.874c-1.301-5.681-0.768-11.619-2.138-17.385-4.518-19.016-18.915-37.646-35.372-47.908-18.178-11.336-37.988-12.579-58.62-7.76-17.908 4.183-36.613 14.699-46.465 30.652-9.274 15.016-12.179 35.361-8.098 52.543 2.191 9.224 9.579 27.021 17.786 32.135 2.256 2.863 4.583 5.468 7.308 7.897 2.643 2.355 18.683 13.537 19.059 15.432-5.552-2.716-10.67-6.399-16.051-9.451-13.721-7.783-27.533-15.566-40.946-23.876-3.05-7.844-4.918-15.327-6.232-23.62-1.315-11.22 0.057-22.234 2.18-33.262 0.547-2.427 1.236-4.837 1.86-7.247 2.068-6.2 4.821-11.501 8.102-17.12 8.249-11.664 17.162-20.145 29.206-27.87z" fill="#DA2209"/> <path transform="scale(1.9531)" d="m416.58 186.76c1.697-11.224 9.866-27.176 17.87-35.363 4.697-4.806 9.501-6.083 16.099-6.113 27.348-0.124 53.823 13.814 72.82 32.71 6.961 7.732 12.87 15.888 18.295 24.755 1.233 2.656 2.926 5.534 3.818 8.296 5.974 14.241 10.125 28.533 11.69 43.958 0.881 7.125 1.488 14.514 2.985 21.538-9.526 2.08-18.142 5.442-26.554 10.362-14.469 8.362-27.071 19.608-35.508 34.225-3.025 5.241-5.328 11.109-8.686 16.112 4.078 3.952 8.258 7.783 11.787 12.249 2.354 4.015 4.681 8.039 7.479 11.768 3.737 4.982 8.886 10.198 11.678 15.737 1.751 2.107 3.571 4.185 5.235 6.361l3.296 0.616c5.335 7.674 12.773 10.719 21.165 13.922 3.062 1.301 5.239 1.814 8.556 1.592 3.923 0.764 7.849 1.659 11.858 1.743-4.35 3.508-22.826 21.954-26.497 22.326-0.777-0.951-1.553-2.039-2.575-2.734 0.454 3.014 0.812 6.189 1.876 9.059l-7.11-1.812c-22.078-4.565-45.311-2.69-64.491 9.999-2.522 1.669-4.905 3.479-7.26 5.373-7.582 7.293-14.511 15.104-20.156 24.012-15.797-17.95-39.446-31.196-62.47-37.103 3.215-6.059 3.959-12.816 5.016-19.485 0.874-2.562 1.135-5.688 1.656-8.387q1.658-8.737 3.583-17.419c1.723-6.261 3.901-11.921 6.781-17.743-2.625-10.758-6.912-19.265-12.726-28.58 13.197-13.2 25.691-27.074 38.849-40.327-2.786-7.894-4.639-16.257-7.08-24.29-0.952-2.93-1.452-6.135-2.096-9.156-4.742-25.989-3.991-52.309 0.817-78.201z" fill="#297900"/> <path transform="scale(1.9531)" d="m525.89 239.05c-0.082 5.613-0.345 10.028-3.246 15.018l-3.281-3.577c2.102-3.854 4.617-7.49 6.527-11.441z" fill="#73BF09"/> <path transform="scale(1.9531)" d="m478.8 243.79c-1.913-8.014-6.528-16.107-9.713-23.731-7.528-18.021-15.585-37.019-20.439-55.967 3.521 6.502 6.194 13.506 9.012 20.336 7.056 17.109 14.922 38.901 23.649 54.931-0.826 1.427-1.877 2.919-2.509 4.431z" fill="#73BF09"/> <path transform="scale(1.9531)" d="m485.23 236.3c0.144-0.228 0.29-0.454 0.431-0.683 6.163-10.036 11.213-25.978 14.209-37.415 0.914-3.488 2.39-16.757 3.832-18.885 1.17 1.277 1.56 3.422 1.528 5.119-0.323 16.72-7.111 37.624-14.033 52.742l-5.967-0.878z" fill="#73BF09"/> <path transform="scale(1.9531)" d="m467.6 255.28c-0.442-0.903-0.226-0.734-0.883-1.269-12.767-10.393-24.951-21.72-31.857-37.038-0.504-1.118-1.075-1.676-0.616-2.888 2.164 0.537 14.202 15.611 17.082 18.608q9.503 9.958 20.475 18.27c-1.286 1.343-2.815 2.682-3.804 4.251l-0.397 0.066z" fill="#73BF09"/> <path transform="scale(1.9531)" d="m485.23 236.3 5.967 0.878c12.582 1.84 18.883 4.625 28.171 13.309l3.281 3.577c6.672 10.779 9.754 20.288 10.955 32.835-14.469 8.362-27.071 19.608-35.508 34.225-3.025 5.241-5.328 11.109-8.686 16.112l-2.957-2.498c-7.196-5.718-14.502-9.659-23.067-12.97-6.667-1.5-13.776-3.433-20.634-2.201-14.754 7.167-27.71 20.042-36.284 33.913-2.757 4.461-4.801 9.483-7.651 13.83-2.625-10.758-6.912-19.265-12.726-28.58 13.197-13.2 25.691-27.074 38.849-40.327l42.665-43.123 0.397-0.066c0.989-1.569 2.518-2.908 3.804-4.251l5.348-5.266 1.645-1.912c0.632-1.512 1.683-3.004 2.509-4.431 1.161-1.192 2.569-2.094 3.922-3.054z" fill="#E3E76C"/> <path transform="scale(1.9531)" d="m477.15 245.7c3.094 3.319 6.498 6.25 9.373 9.786 8.919 10.966 12.82 24.897 12.327 38.902-0.429 12.184-5.037 30.492-12.401 40.353-7.196-5.718-14.502-9.659-23.067-12.97 1.403-3.124 3.392-6.1 5.007-9.135 4.151-7.799 7.185-16.195 7.937-25.047 0.872-10.265-1.444-24.281-8.328-32.372 0.989-1.569 2.518-2.908 3.804-4.251l5.348-5.266z" fill="#F7EA91"/> <path transform="scale(1.9531)" d="m467.6 255.28 0.397-0.066c6.884 8.091 9.2 22.107 8.328 32.372-0.752 8.852-3.786 17.248-7.937 25.047-1.615 3.035-3.604 6.011-5.007 9.135-6.667-1.5-13.776-3.433-20.634-2.201-14.754 7.167-27.71 20.042-36.284 33.913-2.757 4.461-4.801 9.483-7.651 13.83-2.625-10.758-6.912-19.265-12.726-28.58 13.197-13.2 25.691-27.074 38.849-40.327l42.665-43.123z" fill="#EDB631"/> <path transform="scale(1.9531)" d="m442.75 319.57c6.858-1.232 13.967 0.701 20.634 2.201 8.565 3.311 15.871 7.252 23.067 12.97l2.957 2.498c4.078 3.952 8.258 7.783 11.787 12.249 2.354 4.015 4.681 8.039 7.479 11.768 3.737 4.982 8.886 10.198 11.678 15.737 1.751 2.107 3.571 4.185 5.235 6.361l3.296 0.616c5.335 7.674 12.773 10.719 21.165 13.922 3.062 1.301 5.239 1.814 8.556 1.592 3.923 0.764 7.849 1.659 11.858 1.743-4.35 3.508-22.826 21.954-26.497 22.326-0.777-0.951-1.553-2.039-2.575-2.734 0.454 3.014 0.812 6.189 1.876 9.059l-7.11-1.812c-22.078-4.565-45.311-2.69-64.491 9.999-2.522 1.669-4.905 3.479-7.26 5.373-7.582 7.293-14.511 15.104-20.156 24.012-15.797-17.95-39.446-31.196-62.47-37.103 3.215-6.059 3.959-12.816 5.016-19.485 0.874-2.562 1.135-5.688 1.656-8.387q1.658-8.737 3.583-17.419c1.723-6.261 3.901-11.921 6.781-17.743 2.85-4.347 4.894-9.369 7.651-13.83 8.574-13.871 21.53-26.746 36.284-33.913z" fill="#84C730"/> <path transform="scale(1.9531)" d="m431.04 380.69c4.142 8.578 8.958 16.678 15.143 23.957 5.131 6.04 10.921 11.75 15.214 18.435 0.329 1.806 0.63 3.172-0.019 4.962-15.315-12.572-25.993-27.788-30.338-47.354z" fill="#3B962F"/> <path transform="scale(1.9531)" d="m442.75 319.57c6.858-1.232 13.967 0.701 20.634 2.201 8.565 3.311 15.871 7.252 23.067 12.97l2.957 2.498c4.078 3.952 8.258 7.783 11.787 12.249 2.354 4.015 4.681 8.039 7.479 11.768 3.737 4.982 8.886 10.198 11.678 15.737 1.751 2.107 3.571 4.185 5.235 6.361l3.296 0.616c5.335 7.674 12.773 10.719 21.165 13.922 3.062 1.301 5.239 1.814 8.556 1.592 3.923 0.764 7.849 1.659 11.858 1.743-4.35 3.508-22.826 21.954-26.497 22.326-0.777-0.951-1.553-2.039-2.575-2.734 0.454 3.014 0.812 6.189 1.876 9.059l-7.11-1.812c-22.078-4.565-45.311-2.69-64.491 9.999-2.522 1.669-4.905 3.479-7.26 5.373-1.067-5.273-0.834-10.306-3.02-15.397 0.649-1.79 0.348-3.156 0.019-4.962 2.598-21.396-12.501-80.787-18.654-103.51z" fill="#5BA402"/> <path transform="scale(1.9531)" d="m520.35 377c1.751 2.107 3.571 4.185 5.235 6.361 7.153 10.888 12.363 24.902 15.803 37.465 0.454 3.014 0.812 6.189 1.876 9.059l-7.11-1.812c0.289-2.552-0.3-5.34-0.67-7.883-0.814-5.595-2.135-11.209-4.179-16.489-2.426-6.265-11.277-20.906-10.955-26.701z" fill="#297900"/> <path transform="scale(1.9531)" d="m481.63 349.87c3.275 2.892 3.795 9.641 4.317 13.778 3.077 24.419-0.441 39.36-15.492 58.77-0.609 0.572-1.259 1.078-1.911 1.6l-1.037-0.142c-1.429-2.803 1.237-7.406 2.489-10.041 2.239-4.712 4.804-9.372 6.696-14.232 6.406-16.455 5.075-32.583 4.938-49.733z" fill="#297900"/> <path transform="scale(1.9531)" d="m525.58 383.36 3.296 0.616c5.335 7.674 12.773 10.719 21.165 13.922 3.062 1.301 5.239 1.814 8.556 1.592 3.923 0.764 7.849 1.659 11.858 1.743-4.35 3.508-22.826 21.954-26.497 22.326-0.777-0.951-1.553-2.039-2.575-2.734-3.44-12.563-8.65-26.577-15.803-37.465z" fill="#E3E76C"/> <path transform="scale(1.9531)" d="m639.99 234c3.105-2.571 5.511-6.459 8.3-9.436 4.119-4.395 9-8.364 13.675-12.157 15.106-12.253 30.645-21.37 49.347-27.134 5.109-1.574 10.404-3.311 15.816-2.741 25.367 20.533 40.724 40.129 52.763 70.367 2.618 6.576 5.51 13.699 6.92 20.634-5.383 3.807-11.213 6.838-16.381 10.991-16.172 12.995-29.234 33.279-32.865 53.843-1.041 5.898-1.161 11.746-1.155 17.711 6.182 1.028 12.434 1.833 18.594 2.94 1.592 0.582 2.417 0.949 3.468 2.3 0.295 1.449 0.272 1.368-0.5 2.638-0.713 0.349-1.429 0.745-2.162 1.045l0.442 6.277c-21.245 8.589-39.634 23.243-48.903 44.777-6.846 15.904-7.615 35.815-1.406 52.048-4.422 5.133-31.125 15.687-39.004 20.324-4.723 8.269-9.112 15.114-15.949 21.845-15.067 11.446-26.758 15.557-45.517 16.937-0.346-8.028 0.139-15.762-0.727-23.823-0.907-2.454-1.187-5.724-1.851-8.325-1.264-4.947-2.992-9.551-4.937-14.255-10.042-18.007-20.154-30.089-37.078-41.91l-4.229-2.508c-4.287-2.591-8.754-4.629-13.39-6.508-1.064-2.87-1.422-6.045-1.876-9.059 1.022 0.695 1.798 1.783 2.575 2.734 3.671-0.372 22.147-18.818 26.497-22.326-4.009-0.084-7.935-0.979-11.858-1.743-3.317 0.222-5.494-0.291-8.556-1.592-8.392-3.203-15.83-6.248-21.165-13.922l-3.296-0.616c-1.664-2.176-3.484-4.254-5.235-6.361-2.792-5.539-7.941-10.755-11.678-15.737-2.798-3.729-5.125-7.753-7.479-11.768-3.529-4.466-7.709-8.297-11.787-12.249 3.358-5.003 5.661-10.871 8.686-16.112 8.437-14.617 21.039-25.863 35.508-34.225 8.412-4.92 17.028-8.282 26.554-10.362 14.085-1.666 26.981-1.535 40.873 1.707l6.998 2.24c1.717 0.682 3.428 1.399 5.172 2.011 8.453-20.652 13.998-30.524 26.796-48.5z" fill="#84C730"/> <path transform="scale(1.9531)" d="m697.2 239.38c0.477 0.814 0.483 0.61 0.584 1.353 1.038 7.628 2.977 15.766 3.3 23.402-5.381-6.555-4.306-16.853-3.884-24.755z" fill="#5BA402"/> <path transform="scale(1.9531)" d="m662.96 234.29c1.063 0.918 1.33 1.946 1.758 3.238 3.597 10.861 6.042 22.209 9.372 33.177l8.41 27.352c1.671 5.468 3.814 11.279 4.559 16.951-1.644-2.208-3.236-4.48-4.645-6.847-10.077-16.934-24.305-55.005-19.454-73.871z" fill="#5BA402"/> <path transform="scale(1.9531)" d="m651.84 429.26c25.652-22.252 71.483-55.097 103.97-64.263l0.442 6.277c-21.245 8.589-39.634 23.243-48.903 44.777-6.846 15.904-7.615 35.815-1.406 52.048-4.422 5.133-31.125 15.687-39.004 20.324q0.759-2.205 1.419-4.442c4.269-14.781 1.345-29.286-6.008-42.495l-3.054-4.036c-2.367-2.9-4.7-5.653-7.458-8.19z" fill="#5BA402"/> <path transform="scale(1.9531)" d="m698.09 406.51c-9.423 12.949-22.515 25.856-35.736 34.98l-3.054-4.036q18.856-16.148 38.79-30.944z" fill="#73BF09"/> <path transform="scale(1.9531)" d="m556.65 436.39c7.693-8.646 15.944-15.621 26.858-19.822 15.407-5.93 33.909-5.699 49.02 1.099 7.092 3.021 13.313 6.756 19.309 11.599 2.758 2.537 5.091 5.29 7.458 8.19l3.054 4.036c7.353 13.209 10.277 27.714 6.008 42.495q-0.66 2.237-1.419 4.442c-4.723 8.269-9.112 15.114-15.949 21.845-15.067 11.446-26.758 15.557-45.517 16.937-0.346-8.028 0.139-15.762-0.727-23.823-0.907-2.454-1.187-5.724-1.851-8.325-1.264-4.947-2.992-9.551-4.937-14.255-10.042-18.007-20.154-30.089-37.078-41.91l-4.229-2.508z" fill="#5B370A"/> <path transform="scale(1.9531)" d="m560.88 438.9c10.893-9.549 21.942-15.091 36.817-14.187 7.698 0.468 15.691 3.073 20.993 8.927 4.438 4.9 6.11 11.077 5.605 17.588-0.67 8.633-4.834 17.033-11.506 22.59-4.419 3.68-9.361 5.487-14.831 6.992-10.042-18.007-20.154-30.089-37.078-41.91z" fill="#7A5A26"/> <path transform="scale(1.9531)" d="m727.13 182.53c25.367 20.533 40.724 40.129 52.763 70.367 2.618 6.576 5.51 13.699 6.92 20.634-5.383 3.807-11.213 6.838-16.381 10.991-16.172 12.995-29.234 33.279-32.865 53.843-1.041 5.898-1.161 11.746-1.155 17.711-10.457-1.719-20.914-1.974-31.437-2.889-2.646-0.135-5.323-0.033-7.973-0.017q-6.491 0.291-12.975 0.722c2.982-14.245 6.502-28.274 10.108-42.369l0.901-3.314c1.414-7.376 4.063-14.492 6.017-21.74 1.793-8.097 4.288-16.224 7.139-24.006 4.338-19.375 9.548-38.574 14.056-57.918 1.701-7.3 3.75-14.605 4.882-22.015z" fill="#5BA402"/> <path transform="scale(1.9531)" d="m697 353.17-3.434-0.548c3.887-2.686 11.291-5.062 16.106-7.989 6.483-3.943 13.377-10.45 20.245-13.135-7.565 11.417-15.962 13.545-24.944 21.689-2.646-0.135-5.323-0.033-7.973-0.017z" fill="#3B962F"/> <path transform="scale(1.9531)" d="m695.04 308.21c7.409-5.429 15.337-9.938 22.604-15.636 9.335-7.32 18.704-15.062 27.227-23.313 7.112-6.884 13.695-14.29 20.74-21.236q-1.252 2.197-2.578 4.351-1.325 2.154-2.723 4.261-1.397 2.108-2.866 4.167-1.468 2.059-3.005 4.067t-3.14 3.964q-1.604 1.955-3.274 3.855-1.669 1.899-3.401 3.742-1.733 1.842-3.526 3.625-1.794 1.782-3.647 3.503t-3.763 3.378q-1.91 1.658-3.876 3.249-1.965 1.592-3.983 3.117-2.017 1.524-4.086 2.979-2.068 1.455-4.184 2.84-2.116 1.384-4.278 2.697-2.162 1.312-4.367 2.55c-4.397 2.493-9.893 5.817-14.775 7.154l0.901-3.314z" fill="#3B962F"/> <path transform="scale(1.9531)" d="m708.19 262.46c12.001-8.224 23.236-16.279 31.995-28.089 1.903-2.566 5.097-8.034 8.601-8.043 2.211 0.834 3.245 2.442 4.207 4.524 1.854 4.013 1.828 8.139 0.247 12.248-5.863 15.236-37.115 36.447-52.189 43.366 1.793-8.097 4.288-16.224 7.139-24.006z" fill="#73BF09"/> <path transform="scale(1.9531)" d="m560.15 276.54c14.085-1.666 26.981-1.535 40.873 1.707l6.998 2.24c1.717 0.682 3.428 1.399 5.172 2.011 23.952 9.856 40.346 22.432 50.566 47.03 3.462 8.333 5.517 17.382 7.11 26.251-3.848 0.646-7.754 1.191-11.558 2.056-4.905 1.137-9.881 2.556-14.818 3.49-3.107 0.973-6.272 1.868-9.33 2.982-4.753 1.92-10.097 3.623-14.532 6.131-6.147 4.764-14.775 7.485-21.599 11.395-8.88 5.088-16.961 11.349-25.543 16.889l-3.033 2.505c-4.009-0.084-7.935-0.979-11.858-1.743-3.317 0.222-5.494-0.291-8.556-1.592-8.392-3.203-15.83-6.248-21.165-13.922l-3.296-0.616c-1.664-2.176-3.484-4.254-5.235-6.361-2.792-5.539-7.941-10.755-11.678-15.737-2.798-3.729-5.125-7.753-7.479-11.768-3.529-4.466-7.709-8.297-11.787-12.249 3.358-5.003 5.661-10.871 8.686-16.112 8.437-14.617 21.039-25.863 35.508-34.225 8.412-4.92 17.028-8.282 26.554-10.362z" fill="#F4754F"/> <path transform="scale(1.9531)" d="m560.15 276.54c14.085-1.666 26.981-1.535 40.873 1.707l6.998 2.24c1.717 0.682 3.428 1.399 5.172 2.011 23.952 9.856 40.346 22.432 50.566 47.03 3.462 8.333 5.517 17.382 7.11 26.251-3.848 0.646-7.754 1.191-11.558 2.056-1.463-18.283-5.327-33.883-18.511-47.448q-2.771-2.901-5.944-5.357-3.172-2.456-6.674-4.413c-11.792-6.494-39.697-14.757-53.3-14.867-18.642-0.15-37.991 8.717-51.059 21.827-9.048 9.078-22.68 28.534-22.634 41.911-3.529-4.466-7.709-8.297-11.787-12.249 3.358-5.003 5.661-10.871 8.686-16.112 8.437-14.617 21.039-25.863 35.508-34.225 8.412-4.92 17.028-8.282 26.554-10.362z" fill="#DA2209"/> <path transform="scale(1.9531)" d="m528.88 383.97c-5.882-11.02-10.548-19.714-9.647-32.563 0.977-13.94 7.818-29.148 18.547-38.267 10.457-8.887 24.235-13.795 37.956-12.544 7.311 0.667 20.513 4.128 25.342 9.876-0.117 0.144-0.237 0.287-0.352 0.434-4.42 5.619-9.001 25.668-16.464 27.157-0.668 0.133-1.015-0.191-1.597-0.468-1.153-1.605-1.722-2.693-2.119-4.637-1.199-0.168-2.468-0.609-3.649-0.907l-1.297 2.071c-1.031 0.229-0.791 0.352-1.83-0.209l-2.275-0.02c-1.074 0.989-1.774 1.648-3.246 2.001-0.502-0.137-1.078-0.237-1.543-0.468l-2.643 1.544c-0.765 1.479-1.704 2.813-3.336 3.433-0.743 0.281-1.275 0.17-2.016 7e-3 -1.181 1.41-2.339 2.681-3.715 3.904-1.215 1.406-2.24 2.785-3.918 3.641-0.882 1.409-0.636 2.416-1.073 3.864 1.067 0.998 1.456 1.552 1.871 2.956-0.312 1.316-0.591 2.137-1.744 2.962-0.94 0.673-2.239 1.113-3.305 1.543l-0.934 2.785c3.135 0.925 6.052 2.408 7.739 5.344 0.43 0.747 0.808 1.449 0.973 2.296l0.266 3.364c1.551-0.269 1.912-0.479 3.38 0.197 1.001 1.758 0.194 4.227-0.215 6.119l1.604-0.299c0.881 1.002 1.138 1.106 1.069 2.505-0.222 4.47-5.064 12.555-8.654 15.318-0.707 0.544-1.16 0.791-2.01 0.983-8.392-3.203-15.83-6.248-21.165-13.922z" fill="#DA2209"/> <path transform="scale(1.9531)" d="m571.5 333.9c-1.875-3.977-5.103-10.724-3.342-15.036 0.311-0.763 0.872-0.974 1.515-1.434l1.119 0.051c2.787 3.295 1.761 11.978 2.983 16.439l-2.275-0.02z" fill="#F4CC27"/> <path transform="scale(1.9531)" d="m576.9 332.05c0.07-0.159 0.143-0.317 0.21-0.476 1.782-4.215 0.523-10.683 4.01-13.872 1.079-0.197 1.593-0.216 2.549 0.527 1.02 0.793 1.331 1.72 1.281 2.959-0.147 3.61-2.953 8.446-4.401 11.769-1.199-0.168-2.468-0.609-3.649-0.907z" fill="#F4CC27"/> <path transform="scale(1.9531)" d="m545.89 362.07c-4.482 0.604-10.88 3.859-15.027 1.507l-0.082-0.975-0.084 0.862c-0.484-0.356-0.847-0.933-1.222-1.402l0.228-0.986c4.369-3.504 11.884-1.94 17.121-1.791l-0.934 2.785z" fill="#EDB631"/> <path transform="scale(1.9531)" d="m554.61 369.71 0.266 3.364c-3.448 2.358-10.976 6.74-15.074 6.946-1.612 0.081-2.836-0.155-4.069-1.24l-0.021-0.851c3.605-3.561 13.931-5.962 18.898-8.219z" fill="#EDB631"/> <path transform="scale(1.9531)" d="m564.06 336.97c-3.018-3.616-7.033-6.683-9.05-11.015 0.031-1.2 0.052-1.663 0.944-2.605 0.949-1.003 1.954-1.066 3.223-1.008 3.892 2.324 5.782 9.065 7.526 13.084l-2.643 1.544z" fill="#EDB631"/> <path transform="scale(1.9531)" d="m558.04 379.39 1.604-0.299c-0.384 0.999-0.317 2.261-0.556 3.346-3.072 3.272-8.091 6.936-12.448 8.015-1.506 0.373-3.122 0.63-4.491-0.238l-0.038-0.878c3.058-5.506 10.526-6.256 15.415-9.584 0.173-0.118 0.342-0.242 0.514-0.362z" fill="#F4CC27"/> <path transform="scale(1.9531)" d="m550.01 351.82c-4.701-0.489-10.014-1.102-14.542-2.461-1.923-0.578-4.107-1.371-5.138-3.203l0.408-0.967c5.344-2.611 14.876 1.364 20.345 2.767-0.882 1.409-0.636 2.416-1.073 3.864z" fill="#F4CC27"/> <path transform="scale(1.9531)" d="m555 344.32c-4.1-3.99-9.857-6.033-13.65-10.187-1.031-1.129-1.441-1.931-1.35-3.451 0.718-0.792 1.439-0.984 2.463-1.146 5.995-0.948 11.486 7.299 15.837 10.575 0.137 0.104 0.277 0.203 0.415 0.305-1.181 1.41-2.339 2.681-3.715 3.904z" fill="#EDB631"/> <path transform="scale(1.9531)" d="m601.08 310.47c3.36 0.989 7.245 2.558 10.675 2.999 1.583-0.797 3.75-0.143 5.355 0.379 9.633 3.13 17.394 11.909 21.62 20.84 3.985 8.425 4.881 17.475 5.768 26.635-3.107 0.973-6.272 1.868-9.33 2.982-4.753 1.92-10.097 3.623-14.532 6.131-6.147 4.764-14.775 7.485-21.599 11.395-8.88 5.088-16.961 11.349-25.543 16.889l-3.033 2.505c-4.009-0.084-7.935-0.979-11.858-1.743-3.317 0.222-5.494-0.291-8.556-1.592 0.85-0.192 1.303-0.439 2.01-0.983 3.59-2.763 8.432-10.848 8.654-15.318 0.069-1.399-0.188-1.503-1.069-2.505l-1.604 0.299c0.409-1.892 1.216-4.361 0.215-6.119-1.468-0.676-1.829-0.466-3.38-0.197l-0.266-3.364c-0.165-0.847-0.543-1.549-0.973-2.296-1.687-2.936-4.604-4.419-7.739-5.344l0.934-2.785c1.066-0.43 2.365-0.87 3.305-1.543 1.153-0.825 1.432-1.646 1.744-2.962-0.415-1.404-0.804-1.958-1.871-2.956 0.437-1.448 0.191-2.455 1.073-3.864 1.678-0.856 2.703-2.235 3.918-3.641 1.376-1.223 2.534-2.494 3.715-3.904 0.741 0.163 1.273 0.274 2.016-7e-3 1.632-0.62 2.571-1.954 3.336-3.433l2.643-1.544c0.465 0.231 1.041 0.331 1.543 0.468 1.472-0.353 2.172-1.012 3.246-2.001l2.275 0.02c1.039 0.561 0.799 0.438 1.83 0.209l1.297-2.071c1.181 0.298 2.45 0.739 3.649 0.907 0.397 1.944 0.966 3.032 2.119 4.637 0.582 0.277 0.929 0.601 1.597 0.468 7.463-1.489 12.044-21.538 16.464-27.157 0.115-0.147 0.235-0.29 0.352-0.434z" fill="#FD9867"/> <path transform="scale(1.9531)" d="m558.6 399.49c0.137-0.685 0.416-1.424 0.771-2.03 1.716-2.931 6.631-9.083 10.078-9.437 1.149-0.118 2.024 0.02 2.862 0.877 2.319 2.369 1.408 6.88 1.18 9.828l-3.033 2.505c-4.009-0.084-7.935-0.979-11.858-1.743z" fill="#DA2209"/> <path transform="scale(1.9531)" d="m611.75 313.47c1.583-0.797 3.75-0.143 5.355 0.379 9.633 3.13 17.394 11.909 21.62 20.84 3.985 8.425 4.881 17.475 5.768 26.635-3.107 0.973-6.272 1.868-9.33 2.982-4.753 1.92-10.097 3.623-14.532 6.131-1.461-1.322-2.582-2.694-3.761-4.269l-1.371-3.467-1.168-0.9c-0.532-1.234-0.897-2.186-0.81-3.55 0.128-2.004 0.813-2.981 2.261-4.314q-1.521-1.895-3.021-3.807c-1.295 0.338-1.698 0.724-2.959 0.105-0.026-0.181-0.077-0.36-0.08-0.543-0.038-2.413 2.079-4.888 3.46-6.745l-1.596-1.542c-1.068 1.42-2.114 2.953-3.302 4.272-0.87 0.966-1.254 1.407-2.604 1.466-0.097-0.142-0.215-0.272-0.292-0.426-2.71-5.428 4.995-25.874 6.193-32.31l0.169-0.937z" fill="#DA2209"/> <path transform="scale(1.9531)" d="m611.59 341.41c1.998-3.38 6.514-13.143 9.983-14.102 1.454 0.254 1.672 0.329 2.787 1.288 0.222 1.678-0.482 2.347-1.495 3.703-2.851 3.817-6.672 6.943-9.679 10.653l-1.596-1.542z" fill="#EDB631"/> <defs> <linearGradient id="d" x1="630.58" x2="617.44" y1="362.01" y2="364.15" gradientUnits="userSpaceOnUse"> <stop stop-color="#FFD036" offset="0"/> <stop stop-color="#FFB14E" offset="1"/> </linearGradient> </defs> <path transform="scale(1.9531)" d="m615.5 362.7c3.674-0.736 7.428-1.631 11.157-2.002 2.67-0.266 3.784-0.371 5.887 1.366 0.787 1.044 1.543 1.539 2.62 2.241-4.753 1.92-10.097 3.623-14.532 6.131-1.461-1.322-2.582-2.694-3.761-4.269l-1.371-3.467z" fill="url(#d)"/> <path transform="scale(1.9531)" d="m632.55 362.07c0.787 1.044 1.543 1.539 2.62 2.241-4.753 1.92-10.097 3.623-14.532 6.131-1.461-1.322-2.582-2.694-3.761-4.269 5.507-0.418 11.24-0.351 15.673-4.103z" fill="#EF4626"/> <path transform="scale(1.9531)" d="m612.76 350.13c4.555-2.738 13.181-9.007 18.546-7.91 1.064 0.218 1.302 0.505 2.016 1.257 0.031 1.279-0.472 2.143-1.299 3.078-3.644 4.124-11.15 5.707-16.242 7.382q-1.521-1.895-3.021-3.807z" fill="#EDB631"/> <path transform="scale(1.9531)" d="m780.18 367.45c23.477-0.506 44.437 7.212 62.396 22.299l1.391 1.152c6.627 6.351 12.113 13.075 17.178 20.736 1.119 1.836 2.181 3.767 3.518 5.454 8.064 1.334 14.831 6.124 21.908 8.608 2.889 0.076 5.768-0.082 8.654-0.206 2.925-2.406 7.723-3.866 9.802-7.202 0.599-0.959 0.418-1.183 0.119-2.189-4.522 1.399-14.746 3.141-19.114 0.878-1.316-0.681-1.668-1.709-2.164-2.991 0.241-3.323 0.677-6.967 2.06-10.022 3.277-7.235 11.858-2.048 17.678-1.858 3.71 0.122 6.59-0.811 10.008-2.057l0.407 0.339c4.682 3.848 9.999 6.882 14.621 10.806 14.36 12.192 24.565 29.736 26.493 48.548 0.794 7.745 0.705 21.79-2.996 28.807l-0.528-0.048c-9.288 20.028-23.715 35.851-41.836 48.323-62.797 40.361-139.19 63.22-212.35 75.357-8.075 1.339-32.11 5.676-38.858 5.237-16.086-11.282-58.169-12.278-78.257-15.916q-24.272 0.72-48.554 0.93c20.584-2.574 40.753-16.917 54.827-31.354 2.971-3.973 5.63-8.166 8.342-12.318 2.705-5.271 4.968-10.672 7.152-16.171 1.774-5.031 1.689-10.504 3.401-15.385 18.759-1.38 30.45-5.491 45.517-16.937 6.837-6.731 11.226-13.576 15.949-21.845 7.879-4.637 34.582-15.191 39.004-20.324-6.209-16.233-5.44-36.144 1.406-52.048 9.269-21.534 27.658-36.188 48.903-44.777 4.18-1.613 7.9-2.81 12.398-3.128 3.889-0.024 7.658-0.265 11.522-0.698z" fill="#EDB631"/> <path transform="scale(1.9531)" d="m702.03 525.7 0.925 0.617c-1.558 5.714-28.62 30.866-34.758 36.216-3.781 3.294-7.767 6.608-12.117 9.133-11.399 6.617-20.752 7.379-33.631 7.271-2.927-1.176-6.178-2.463-8.549-4.585-0.13-0.528-0.186-0.866-0.458-1.376-1.392-2.617-15.1-13.363-17.862-14.087l-0.654-0.126c2.705-5.271 4.968-10.672 7.152-16.171 14.869 0.191 30.007-4.459 44.554-7.269q27.644-5.131 55.398-9.623z" fill="#CE8D1E"/> <path transform="scale(1.9531)" d="m705.95 468.1c0.841 2.118 1.685 4.096 3.204 5.83 2.051-1.35 4.108-2.659 6.224-3.905 3.282 16.529-1.777 40.274-11.07 54.281q-0.416 0.625-0.85 1.238c-0.494 5e-3 -0.983-0.078-1.427 0.155q-27.754 4.492-55.398 9.623c-14.547 2.81-29.685 7.46-44.554 7.269 1.774-5.031 1.689-10.504 3.401-15.385 18.759-1.38 30.45-5.491 45.517-16.937 6.837-6.731 11.226-13.576 15.949-21.845 7.879-4.637 34.582-15.191 39.004-20.324z" fill="#EDB631"/> <path transform="scale(1.9531)" d="m705.95 468.1c0.841 2.118 1.685 4.096 3.204 5.83-9.771 6.938-48.727 33.886-58.157 36.339 6.837-6.731 11.226-13.576 15.949-21.845 7.879-4.637 34.582-15.191 39.004-20.324z" fill="#CE8D1E"/> <path transform="scale(1.9531)" d="m760.55 441.47c4.239-0.808 6.836-0.794 11.036 0.375 7.632 12.146 14.009 25.061 17.601 38.999 0.912 4.585 1.655 9.28 2.759 13.817 0.428 5.77 1.439 11.518 1.58 17.3q-0.102 9.083-1.611 18.04c-1.118 5.717-2.557 11.308-3.806 16.99-3.186 5.903-4.869 13.802-8.071 20.252-11.428 3.372-24.001 8.304-35.676 10.132-8.618 1.418-17.179 3.896-25.853 4.818 21.778-16.85 33.936-38.328 38.651-65.23-10.659 0.844-21.311 2.041-31.655 4.87-6.671 1.418-15.235 4.238-22.051 3.718q0.434-0.613 0.85-1.238c9.293-14.007 14.352-37.752 11.07-54.281l0.182-0.369c4.203-2.243 8.042-5.256 11.911-8.026l0.749-0.626c-0.412-1.203-0.504-2.212-0.597-3.468 3.355-1.67 6.632-3.386 10.405-3.829 1.715-0.815 3.377-2.405 4.899-3.568l3.082-2.496c2.126-0.624 3.692-2.737 6.05-2.429 2.929-0.835 5.473-2.848 8.495-3.751z" fill="#297900"/> <path transform="scale(1.9531)" d="m746 447.65c2.126-0.624 3.692-2.737 6.05-2.429 16.801 19.588 23.232 41.83 21.275 67.582-1.873 24.649-12.849 46.075-28.968 64.572-8.618 1.418-17.179 3.896-25.853 4.818 21.778-16.85 33.936-38.328 38.651-65.23 2.712-23.519-0.672-46.852-14.237-66.817l3.082-2.496z" fill="#E3E76C"/> <path transform="scale(1.9531)" d="m738.02 453.71c1.715-0.815 3.377-2.405 4.899-3.568 13.565 19.965 16.949 43.298 14.237 66.817-10.659 0.844-21.311 2.041-31.655 4.87-6.671 1.418-15.235 4.238-22.051 3.718q0.434-0.613 0.85-1.238c9.293-14.007 14.352-37.752 11.07-54.281l0.182-0.369c4.203-2.243 8.042-5.256 11.911-8.026l0.749-0.626c-0.412-1.203-0.504-2.212-0.597-3.468 3.355-1.67 6.632-3.386 10.405-3.829z" fill="#F7EA91"/> <path transform="scale(1.9531)" d="m727.62 457.54c3.355-1.67 6.632-3.386 10.405-3.829-3.049 2.686-6.493 4.952-9.808 7.297-0.412-1.203-0.504-2.212-0.597-3.468z" fill="#F4754F"/> <path transform="scale(1.9531)" d="m727.47 461.63c1.421 2.34 1.865 5.242 2.428 7.895 2.764 13.029 3.183 27.292-0.047 40.277-1.027 4.126-2.353 8.254-4.343 12.024-6.671 1.418-15.235 4.238-22.051 3.718q0.434-0.613 0.85-1.238c9.293-14.007 14.352-37.752 11.07-54.281l0.182-0.369c4.203-2.243 8.042-5.256 11.911-8.026z" fill="#FEFEFE"/> <path transform="scale(1.9531)" d="m780.18 367.45c23.477-0.506 44.437 7.212 62.396 22.299l1.391 1.152c6.627 6.351 12.113 13.075 17.178 20.736 1.119 1.836 2.181 3.767 3.518 5.454 6.611 13.499 9.881 27.21 10.462 42.204-0.063 23.297-6.775 45.667-23.561 62.449-16.771 16.768-38.909 25.502-62.553 25.255l-0.897-0.014c1.249-5.682 2.688-11.273 3.806-16.99q1.509-8.957 1.611-18.04c-0.141-5.782-1.152-11.53-1.58-17.3-1.104-4.537-1.847-9.232-2.759-13.817-3.592-13.938-9.969-26.853-17.601-38.999-4.2-1.169-6.797-1.183-11.036-0.375-3.022 0.903-5.566 2.916-8.495 3.751-2.358-0.308-3.924 1.805-6.05 2.429l-3.082 2.496c-1.522 1.163-3.184 2.753-4.899 3.568-3.773 0.443-7.05 2.159-10.405 3.829 0.093 1.256 0.185 2.265 0.597 3.468l-0.749 0.626c-3.869 2.77-7.708 5.783-11.911 8.026l-0.182 0.369c-2.116 1.246-4.173 2.555-6.224 3.905-1.519-1.734-2.363-3.712-3.204-5.83-6.209-16.233-5.44-36.144 1.406-52.048 9.269-21.534 27.658-36.188 48.903-44.777 4.18-1.613 7.9-2.81 12.398-3.128 3.889-0.024 7.658-0.265 11.522-0.698z" fill="#F4754F"/> <path transform="scale(1.9531)" d="m727.62 457.54c-2.06-11.959-1.263-22.646 3.999-33.698 6.825-14.338 18.502-24.764 33.546-30.044 6.405-2.248 13.936-3.155 20.179 0.031 4.521 2.307 7.802 5.678 9.257 10.579 1.737 5.854-0.098 11.564-2.956 16.724-1.372 2.479-4.605 7.388-7.517 7.993-0.248 0.052-0.5 0.081-0.749 0.121l-1.172-0.803c-1.12-0.262-2.215-0.608-3.317-0.936-1.939-1.353-3.408-2.817-5.002-4.542-1.128 0.897-2.36 2.084-3.621 2.75 0.747 2.386 1.928 5.187 0.953 7.634l-0.969 0.298c-0.61-0.4-1.215-0.795-1.803-1.227l-2.57-0.265c3.188 3.102 4.483 5.43 5.709 9.687-4.2-1.169-6.797-1.183-11.036-0.375-3.022 0.903-5.566 2.916-8.495 3.751-2.358-0.308-3.924 1.805-6.05 2.429l-3.082 2.496c-1.522 1.163-3.184 2.753-4.899 3.568-3.773 0.443-7.05 2.159-10.405 3.829z" fill="#DA2209"/> <path transform="scale(1.9531)" d="m746 447.65c-2.909-1.379-6.874-0.769-8.788-3.674 0.119-1.443 0.083-1.687 0.957-2.816 1.611-0.273 5.027-0.595 6.387 0.306l-0.851 1.484c0.965 0.753 3.414 0.559 4.69 0.657 4.636 0.358 7.737-2.24 12.15-2.137-3.022 0.903-5.566 2.916-8.495 3.751-2.358-0.308-3.924 1.805-6.05 2.429z" fill="#F09B1B"/> <path transform="scale(1.9531)" d="m743.51 427.37c7.675 1.817 15.658 8.913 22.725 12.842-6.145-0.313-16.544-4.805-21.127-8.947-1.353-1.223-1.481-2.125-1.598-3.895z" fill="#F4CC27"/> <path transform="scale(1.9531)" d="m778.89 427.51c-0.138-5.617-1.257-13.222 1.579-18.24l0.784 0.078c3.046 5.341 1.479 13.178 0.954 19.098-1.12-0.262-2.215-0.608-3.317-0.936z" fill="#F4CC27"/> <path transform="scale(1.9531)" d="m770.27 425.71c-1.504-4.023-6.357-11.535-5.854-15.669 0.159-1.299 0.532-1.581 1.41-2.442l1.087 0.178c3.547 3.331 4.971 10.684 6.978 15.183-1.128 0.897-2.36 2.084-3.621 2.75z" fill="#F4CC27"/> <path transform="scale(1.9531)" d="m765.88 432.15c-5.037-4.106-12.116-8.633-15.658-14.115 0.051-1.311 0.086-1.287 0.968-2.269 1.558-0.457 2.716-0.425 4.122 0.397 4.704 2.753 9.268 11.721 13.138 16.252l-2.57-0.265z" fill="#F4CC27"/> <path transform="scale(1.9531)" d="m780.18 367.45c23.477-0.506 44.437 7.212 62.396 22.299l1.391 1.152c6.627 6.351 12.113 13.075 17.178 20.736 1.119 1.836 2.181 3.767 3.518 5.454 6.611 13.499 9.881 27.21 10.462 42.204-0.063 23.297-6.775 45.667-23.561 62.449-16.771 16.768-38.909 25.502-62.553 25.255l-0.897-0.014c1.249-5.682 2.688-11.273 3.806-16.99 5.485-0.08 10.85-0.444 16.217-1.647 19.364-4.342 37.517-15.747 48.213-32.697q0.937-1.483 1.799-3.01 0.862-1.528 1.647-3.096 0.785-1.569 1.491-3.174 0.707-1.606 1.332-3.244 0.626-1.639 1.169-3.307 0.544-1.667 1.004-3.36t0.836-3.406q0.375-1.713 0.665-3.443t0.494-3.472q0.203-1.742 0.32-3.492t0.147-3.504-0.027-3.507-0.201-3.501q-0.145-1.748-0.375-3.487-0.231-1.739-0.548-3.464t-0.719-3.432c-5.547-23.82-22.873-38.318-42.832-50.749-19.775-12.317-39.898-15.992-62.62-10.618-16.236 3.84-28.324 13.448-36.966 27.583-13.12 21.46-13.015 38.014-7.405 61.689l-0.182 0.369c-2.116 1.246-4.173 2.555-6.224 3.905-1.519-1.734-2.363-3.712-3.204-5.83-6.209-16.233-5.44-36.144 1.406-52.048 9.269-21.534 27.658-36.188 48.903-44.777 4.18-1.613 7.9-2.81 12.398-3.128 3.889-0.024 7.658-0.265 11.522-0.698z" fill="#DA2209"/> <path transform="scale(1.9531)" d="m802 433.14c4.079-7.349 9.369-12.338 17.551-14.724 4.991-1.456 9.917-1.34 14.532 1.246 7.585 4.249 11.847 13.228 13.882 21.346q0.394 1.589 0.709 3.196 0.316 1.607 0.552 3.228 0.237 1.62 0.394 3.25 0.156 1.63 0.233 3.266 0.077 1.635 0.074 3.273-3e-3 1.637-0.086 3.273-0.083 1.635-0.247 3.264-0.163 1.63-0.405 3.249-0.243 1.62-0.565 3.225-0.321 1.606-0.721 3.194t-0.877 3.154q-0.477 1.567-1.03 3.108-0.553 1.542-1.181 3.054-0.627 1.512-1.328 2.992t-1.474 2.924-1.615 2.848c-6.085 9.94-16.021 17.806-27.454 20.507-6.093 1.439-13.31 1.197-19.418-0.059-0.141-5.782-1.152-11.53-1.58-17.3-1.104-4.537-1.847-9.232-2.759-13.817-3.592-13.938-9.969-26.853-17.601-38.999-1.226-4.257-2.521-6.585-5.709-9.687l2.57 0.265c0.588 0.432 1.193 0.827 1.803 1.227l0.969-0.298c0.975-2.447-0.206-5.248-0.953-7.634 1.261-0.666 2.493-1.853 3.621-2.75 1.594 1.725 3.063 3.189 5.002 4.542 1.102 0.328 2.197 0.674 3.317 0.936l1.172 0.803c6.077 1.957 12.622 1.95 18.622 3.898z" fill="#DA2209"/> <path transform="scale(1.9531)" d="m827.99 465.08c1.999-0.121 5.193-0.706 6.871 0.541 0.558 1.456 0.027 1.955-0.541 3.366-0.594 0.246-1.188 0.337-1.816 0.464-2.283-0.889-3.427-2.211-4.514-4.371z" fill="#C76706"/> <path transform="scale(1.9531)" d="m818.27 486.19c1.757 0.858 3.941 2.072 4.485 4.107 0.427 1.599-0.256 2.738-1.007 4.067-0.86-0.018-0.897 0.051-1.699-0.231-1.197-0.42-2.017-1.21-2.415-2.431-0.633-1.938-0.089-3.705 0.636-5.512z" fill="#F4CC27"/> <path transform="scale(1.9531)" d="m833.52 452.61c0.353-0.046 0.898-0.135 1.242-0.095 1.121 0.131 1.857 0.891 2.281 1.906 0.525 1.258 0.265 2.059-0.178 3.281-1.073 0.913-1.299 0.727-2.733 0.719-1.595-0.691-3.416-1.414-4.579-2.742-0.633-0.723-0.431-0.482-0.354-1.562 1.218-1.208 2.706-1.249 4.321-1.507z" fill="#F09B1B"/> <path transform="scale(1.9531)" d="m820.4 454.8c2.118 1.132 5.822 3.84 6.752 6.108 0.208 0.506 0.187 0.748 0.212 1.246-0.991 0.774-0.974 0.707-2.169 0.555-2.409-0.307-5.079-2.18-7.19-3.353 1.155-1.513 1.879-2.717 2.395-4.556z" fill="#F4CC27"/> <path transform="scale(1.9531)" d="m812.59 440.86c1.251-2.373 2.535-5.57 5.516-6.114 1.374-0.25 1.798 0.141 2.779 0.929 0.453 1.24 0.547 2.181 0.033 3.416-0.741 1.783-2.395 3.204-3.746 4.522-1.434-1.096-2.996-1.9-4.582-2.753z" fill="#F4CC27"/> <path transform="scale(1.9531)" d="m789.19 480.84 3.223-1.005c0.011 0.336 0.016 0.674 0.034 1.01 0.257 4.664 4.162 9.131 2.99 13.873l-0.837 0.569-2.651-0.63c-1.104-4.537-1.847-9.232-2.759-13.817z" fill="#EDB631"/> <path transform="scale(1.9531)" d="m804.56 489.14c0.168 0.09 0.345 0.164 0.502 0.27 2.155 1.466 5.389 3.907 5.868 6.6 0.255 1.438-0.612 2.485-1.404 3.563-1.114 0.351-2.102 0.587-3.247 0.144-1.252-0.485-1.953-1.479-2.403-2.691-0.971-2.616-0.348-5.424 0.684-7.886z" fill="#C76706"/> <path transform="scale(1.9531)" d="m825.46 477.39c1.683-0.1 3.086-0.039 4.534 0.912 1.15 0.754 1.839 1.754 1.939 3.162 0.156 2.205-1.044 3.415-2.452 4.866-1.744-0.209-2.88-0.621-4.231-1.756-1.192-1.003-2.056-2.454-1.936-4.067 0.113-1.519 1.142-2.157 2.146-3.117z" fill="#C76706"/> <path transform="scale(1.9531)" d="m824.21 446.37c0.936-2.311 2.05-5.991 4.659-6.88 1.116-0.381 2.131-0.155 3.004 0.627 1.265 1.133 1.968 3.572 1.782 5.217-0.109 0.968-0.285 0.986-0.871 1.688-1.944 0.731-3.71 0.727-5.759 0.769l-2.815-1.421z" fill="#C76706"/> <path transform="scale(1.9531)" d="m801.73 472.63 0.226 0.575c1.612 3.995 4.966 7.529 5.413 11.898l-0.429 0.596c-4.374-1.388-7.729-7.462-10.71-10.762 0.222-0.131 0.448-0.256 0.666-0.395 1.731-1.099 2.774-1.574 4.834-1.912z" fill="#F4CC27"/> <path transform="scale(1.9531)" d="m806.49 464.84c1.553-0.66 3.282-0.993 4.92-1.409l0.558 0.378c3.341 2.23 10.754 4.699 11.886 8.824 0.037 0.133 0.037 0.275 0.056 0.412-1.97 0.659-4.898-0.864-6.703-1.779-3.69-1.869-7.22-4.216-10.717-6.426z" fill="#F4CC27"/> <path transform="scale(1.9531)" d="m773.89 422.96c1.594 1.725 3.063 3.189 5.002 4.542 1.102 0.328 2.197 0.674 3.317 0.936l1.172 0.803c6.077 1.957 12.622 1.95 18.622 3.898-0.538 2.391-1.188 4.932-0.218 7.271 1.51 1.292 2.638 1.623 4.622 1.451 2.067-0.18 4.146-0.626 6.186-1.005 1.586 0.853 3.148 1.657 4.582 2.753q3.536 1.338 7.04 2.759l2.815 1.421c-3.382 0.967-6.788 1.851-10.015 3.271 1.119 1.241 2.205 2.556 3.387 3.734-0.516 1.839-1.24 3.043-2.395 4.556-1.446-0.337-2.536-0.648-4.021-0.261-1.588 1.114-1.955 2.594-2.576 4.336-1.638 0.416-3.367 0.749-4.92 1.409-1.93 0.642-3.598 1.553-4.603 3.414-0.665 1.234-0.813 2.272-0.414 3.632 0.074 0.253 0.176 0.497 0.263 0.746-2.06 0.338-3.103 0.813-4.834 1.912-0.218 0.139-0.444 0.264-0.666 0.395-1.986 1.252-2.435 3.102-3.823 4.898l-3.223 1.005c-3.592-13.938-9.969-26.853-17.601-38.999-1.226-4.257-2.521-6.585-5.709-9.687l2.57 0.265c0.588 0.432 1.193 0.827 1.803 1.227l0.969-0.298c0.975-2.447-0.206-5.248-0.953-7.634 1.261-0.666 2.493-1.853 3.621-2.75z" fill="#FDB773"/> <path transform="scale(1.9531)" d="m913.61 400.05 0.407 0.339c4.682 3.848 9.999 6.882 14.621 10.806 14.36 12.192 24.565 29.736 26.493 48.548 0.794 7.745 0.705 21.79-2.996 28.807l-0.528-0.048c-9.288 20.028-23.715 35.851-41.836 48.323-62.797 40.361-139.19 63.22-212.35 75.357-8.075 1.339-32.11 5.676-38.858 5.237-16.086-11.282-58.169-12.278-78.257-15.916q-24.272 0.72-48.554 0.93c20.584-2.574 40.753-16.917 54.827-31.354 2.971-3.973 5.63-8.166 8.342-12.318l0.654 0.126c2.762 0.724 16.47 11.47 17.862 14.087 0.272 0.51 0.328 0.848 0.458 1.376 2.371 2.122 5.622 3.409 8.549 4.585 5.561 3.886 30.64 13.766 37.06 13.865 17.36-1.859 42.602-5.426 59.003-10.615 8.674-0.922 17.235-3.4 25.853-4.818 11.675-1.828 24.248-6.76 35.676-10.132 3.202-6.45 4.885-14.349 8.071-20.252l0.897 0.014c23.644 0.247 45.782-8.487 62.553-25.255 16.786-16.782 23.498-39.152 23.561-62.449-0.581-14.994-3.851-28.705-10.462-42.204 8.064 1.334 14.831 6.124 21.908 8.608 2.889 0.076 5.768-0.082 8.654-0.206 2.925-2.406 7.723-3.866 9.802-7.202 0.599-0.959 0.418-1.183 0.119-2.189-4.522 1.399-14.746 3.141-19.114 0.878-1.316-0.681-1.668-1.709-2.164-2.991 0.241-3.323 0.677-6.967 2.06-10.022 3.277-7.235 11.858-2.048 17.678-1.858 3.71 0.122 6.59-0.811 10.008-2.057z" fill="#61AF70"/> <path transform="scale(1.9531)" d="m907.15 415.11c1.335 1.135 1.607 1.639 2.047 3.335-0.186 1.644-0.83 2.68-2.147 3.648-3.352 2.463-7.768 3.24-11.828 3.405 2.925-2.406 7.723-3.866 9.802-7.202 0.599-0.959 0.418-1.183 0.119-2.189l2.007-0.997z" fill="#73BF09"/> <path transform="scale(1.9531)" d="m883.86 413.99c7.616 0.145 15.796-0.235 23.285 1.116l-2.007 0.997c-4.522 1.399-14.746 3.141-19.114 0.878-1.316-0.681-1.668-1.709-2.164-2.991z" fill="#84C730"/> <path transform="scale(1.9531)" d="m594.92 558.76 0.654 0.126c2.762 0.724 16.47 11.47 17.862 14.087 0.272 0.51 0.328 0.848 0.458 1.376 2.371 2.122 5.622 3.409 8.549 4.585 5.561 3.886 30.64 13.766 37.06 13.865-10.01 1.575-19.946 2.909-30.061 3.581-2.929 1.068-6.391 1.317-9.487 1.692-8.193 0.992-16.487 1.447-24.72 1.983-4.871 0.317-10.206 0.236-14.93 1.447q-24.272 0.72-48.554 0.93c20.584-2.574 40.753-16.917 54.827-31.354 2.971-3.973 5.63-8.166 8.342-12.318z" fill="#526344"/> <path transform="scale(1.9531)" d="m594.92 558.76 0.654 0.126c2.762 0.724 16.47 11.47 17.862 14.087 0.272 0.51 0.328 0.848 0.458 1.376 2.371 2.122 5.622 3.409 8.549 4.585 5.561 3.886 30.64 13.766 37.06 13.865-10.01 1.575-19.946 2.909-30.061 3.581-15.681-7.078-29.005-15.141-42.864-25.302 2.971-3.973 5.63-8.166 8.342-12.318z" fill="#E3E76C"/> <path transform="scale(1.9531)" d="m595.58 558.89c2.762 0.724 16.47 11.47 17.862 14.087 0.272 0.51 0.328 0.848 0.458 1.376-0.241-0.095-0.482-0.186-0.721-0.285-5.882-2.432-15.08-9.197-17.599-15.178z" fill="#F09B1B"/> <path transform="scale(1.9531)" d="m864.66 417.09c8.064 1.334 14.831 6.124 21.908 8.608 13.718 9.354 25.435 20.648 28.604 37.683 2.751 14.786-4.213 27.13-11.905 39.123-2.664-20.844-13.74-22.748-27.39-34.362-0.165-0.14-0.327-0.284-0.49-0.426q-0.032-4.214-0.265-8.422c-0.581-14.994-3.851-28.705-10.462-42.204z" fill="#31864C"/> <path transform="scale(1.9531)" d="m875.12 459.3q0.233 4.208 0.265 8.422c0.163 0.142 0.325 0.286 0.49 0.426 13.65 11.614 24.726 13.518 27.39 34.362-3.263 5.278-8.764 9.524-13.57 13.351-30.753 24.489-72.468 39.805-109.66 51.381 3.202-6.45 4.885-14.349 8.071-20.252l0.897 0.014c23.644 0.247 45.782-8.487 62.553-25.255 16.786-16.782 23.498-39.152 23.561-62.449z" fill="#3B962F"/> <path transform="scale(1.9531)" d="m158.64 380.33c4.706-0.69 9.437-1.147 14.196-1.038l1.082 2.865c1.706 0.573 2.985 1.925 4.31 3.1 5.929 4.282 11.947 8.985 18.269 12.652 1.905-4.133 2.256-9.146 6.516-11.654 2.43 1.729 14.988 6.627 17.556 6.589 1.314 8.293 3.182 15.776 6.232 23.62 13.413 8.31 27.225 16.093 40.946 23.876 5.381 3.052 10.499 6.735 16.051 9.451 0.659 0.635 1.231 1.155 2.03 1.607-0.253-4.324-1.81-13.394 0.831-17.078l1.505-1.748c16.413-7.272 48.777-7.116 66.895-6.088 6.284 0.886 12.635 1.345 18.903 2.282 2.6 0.565 5.196 1.141 7.82 1.584 23.024 5.907 46.673 19.153 62.47 37.103 5.645-8.908 12.574-16.719 20.156-24.012 2.355-1.894 4.738-3.704 7.26-5.373 19.18-12.689 42.413-14.564 64.491-9.999l7.11 1.812c4.636 1.879 9.103 3.917 13.39 6.508l4.229 2.508c16.924 11.821 27.036 23.903 37.078 41.91 1.945 4.704 3.673 9.308 4.937 14.255 0.664 2.601 0.944 5.871 1.851 8.325 0.866 8.061 0.381 15.795 0.727 23.823-1.712 4.881-1.627 10.354-3.401 15.385-2.184 5.499-4.447 10.9-7.152 16.171-2.712 4.152-5.371 8.345-8.342 12.318-14.074 14.437-34.243 28.78-54.827 31.354q24.282-0.21 48.554-0.93c20.088 3.638 62.171 4.634 78.257 15.916-21.819 2.962-43.964 4.565-65.942 5.801-19.029 1.018-38.108 2.325-57.16 2.709-28.228 0.571-56.646-0.32-84.848-1.502-103.91-4.353-289.37-34.096-361.78-112.88-3.1019-4.369-7.0841-8.183-9.8832-12.773-2.2885-3.752-3.5973-8.07-6.1138-11.678-1.7207-3.936-2.5332-9.927-3.0739-14.171-2.6124-20.507 3.2331-36.228 16.504-51.798 3.5518-4.167 7.6595-7.862 10.99-12.208 0.1283-0.168 0.253-0.338 0.3795-0.507 0.9416 5.236 1.4856 14.298 6.0681 17.687 1.546 1.144 3.268 1.39 5.127 1.008 7.049-1.449 19.15-16.45 25.672-12.702 0.511 0.293 0.942 0.79 1.346 1.209l1.817 1.058c2.623-11.373 13.223-27.675 20.964-36.343z" fill="#C0D9BB"/> <path transform="scale(1.9531)" d="m309.79 571.73c1.704 3.352 3.49 7.799 6.258 10.362 1.213 1.405 2.405 2.822 3.723 4.131-12.461-1.702-24.403-6.963-36.74-9.236-4.326-0.797-9.156 0.083-13.614-0.313l-0.664-0.065c14.347-0.416 27.099-0.887 41.037-4.879z" fill="#84C730"/> <path transform="scale(1.9531)" d="m135.85 415.61 1.817 1.058-0.043 0.416c-0.497 4.481-1.588 8.862-2.06 13.37-1.504 14.363-0.997 30.854 3.105 44.755-9.516 6.589-12.868 15.394-16.884 25.843-7.454-9.205-13.708-20.942-14.169-33.001-0.823-21.484 14.775-37.693 28.234-52.441z" fill="#31864C"/> <path transform="scale(1.9531)" d="m420.28 536.15c5.931 2.241 11.878 4.505 17.89 6.52l2.803 6.683c12.682 24.397 30.308 41.377 56.92 49.692 5.968 1.865 11.995 2.896 18.173 3.762-0.129 0.025-0.258 0.051-0.387 0.074-0.216 0.038-0.433 0.068-0.648 0.107-5.757 1.05-12.735-0.053-18.621-0.2-14.052-0.351-28.013-1.284-42.041-1.985-15.981-0.798-32.238-1.373-48.132-3.145 2.916-3.544 5.358-7.387 7.857-11.227l2.697-6.346c5.202-11.834 5.866-25.045 4.991-37.757q-0.726-3.095-1.502-6.178z" fill="#84C730"/> <path transform="scale(1.9531)" d="m420.28 536.15c5.931 2.241 11.878 4.505 17.89 6.52l2.803 6.683c-5.744-2.452-13.01-6.28-19.191-7.025q-0.726-3.095-1.502-6.178z" fill="#5BA402"/> <path transform="scale(1.9531)" d="m416.79 580.09c11.761 0.381 32.221 5.089 43.37 9.352-9.757 0.234-19.458 0.213-29.179-0.776-5.63-0.572-11.27-1.793-16.888-2.23l2.697-6.346z" fill="#5BA402"/> <path transform="scale(1.9531)" d="m158.64 380.33c4.706-0.69 9.437-1.147 14.196-1.038l1.082 2.865c1.706 0.573 2.985 1.925 4.31 3.1-3.674 5.436-7.442 10.907-10.399 16.775-8.266 16.406-11.544 36.568-7.991 54.671 6.161 31.39 29.175 61.846 55.552 79.286 29.392 19.432 56.151 22.135 90.223 17.319 0.19 1.742 0.365 3.464 0.428 5.215 0.844 4.604 2.676 8.728 3.75 13.212-13.938 3.992-26.69 4.463-41.037 4.879-19.71-0.174-42.014-7.131-59.539-16.036-8.097-4.114-15.697-9.088-23.363-13.938-5.69-1.254-11.212-4.866-16.206-7.762-16.661-9.661-36.296-22.085-47.852-37.821 4.016-10.449 7.368-19.254 16.884-25.843-4.102-13.901-4.609-30.392-3.105-44.755 0.472-4.508 1.563-8.889 2.06-13.37l0.043-0.416c2.623-11.373 13.223-27.675 20.964-36.343z" fill="#297900"/> <path transform="scale(1.9531)" d="m138.67 475.21c7.514 27.761 26.003 52.464 47.174 71.426-5.69-1.254-11.212-4.866-16.206-7.762-16.661-9.661-36.296-22.085-47.852-37.821 4.016-10.449 7.368-19.254 16.884-25.843z" fill="#84C730"/> <path transform="scale(1.9531)" d="m173.91 382.16c1.706 0.573 2.985 1.925 4.31 3.1-3.674 5.436-7.442 10.907-10.399 16.775-8.266 16.406-11.544 36.568-7.991 54.671 6.161 31.39 29.175 61.846 55.552 79.286 29.392 19.432 56.151 22.135 90.223 17.319 0.19 1.742 0.365 3.464 0.428 5.215-4.847 1.32-10.142 1.944-15.129 2.457-31.547 3.242-62.515-5.554-87.153-25.598-26.772-21.78-48.514-51.528-51.92-86.886-1.755-18.222 3.393-38.897 13.028-54.476 2.605-4.213 5.925-8.03 9.051-11.863z" fill="#5BA402"/> <path transform="scale(1.9531)" d="m353.94 492.07c14.88-2.309 27.372 1.34 40.416 8.317 2.008 1.647 4.34 3.218 6.633 4.445 3.616 3.498 7.051 6.944 10.276 10.815 0.776 1.204 1.858 2.566 2.437 3.857 2.927 5.361 4.774 10.83 6.58 16.653q0.776 3.083 1.502 6.178c0.875 12.712 0.211 25.923-4.991 37.757l-2.697 6.346c-2.499 3.84-4.941 7.683-7.857 11.227-3.673-0.559-7.442-0.819-11.139-1.214-6.581 0.128-13.667-1.172-20.237-1.912-18.187-2.048-37.383-3.754-55.091-8.309-1.318-1.309-2.51-2.726-3.723-4.131-2.768-2.563-4.554-7.01-6.258-10.362-1.074-4.484-2.906-8.608-3.75-13.212-0.063-1.751-0.238-3.473-0.428-5.215-0.409-8.414 0.368-15.885 2.713-23.965l1.706-4.086c3.83-7.413 9.656-16.611 16.676-21.421 7.804-6.371 17.428-9.924 27.232-11.768z" fill="#5B370A"/> <path transform="scale(1.9531)" d="m413.7 519.5c2.927 5.361 4.774 10.83 6.58 16.653q0.776 3.083 1.502 6.178c0.875 12.712 0.211 25.923-4.991 37.757l-2.697 6.346c-2.499 3.84-4.941 7.683-7.857 11.227-3.673-0.559-7.442-0.819-11.139-1.214 0.3-0.946 0.126-0.762 0.64-1.377 2.229-2.666 4.433-5.338 6.467-8.161 7.685-10.669 13.043-34.965 12.725-48.014-0.135-5.509-1.49-10.599-2.108-16.004-0.184-1.611-0.178-2.164 0.878-3.391z" fill="#351E00"/> <path transform="scale(1.9531)" d="m326.7 503.84c0.158 0.072 0.308 0.166 0.475 0.217 2.215 0.674 6.889-0.717 9.43-0.902 13.214-0.963 26.653 5.42 33.971 16.593q0.553 0.859 1.063 1.744t0.977 1.794q0.466 0.909 0.887 1.839 0.422 0.931 0.797 1.881t0.704 1.917q0.328 0.967 0.609 1.95 0.281 0.982 0.513 1.976 0.232 0.995 0.416 2 0.183 1.005 0.317 2.018 0.134 1.012 0.218 2.03 0.085 1.018 0.119 2.039 0.035 1.021 0.019 2.043-0.015 1.021-0.081 2.04-0.065 1.02-0.18 2.035-0.116 1.015-0.28 2.023-0.165 1.008-0.379 2.007c-2.442 11.043-10.465 21.883-19.994 27.876-11.753 7.393-23.323 7.09-36.44 3.915-0.751-0.182-1.49-0.399-2.235-0.599-0.848-0.228-0.522-0.15-1.585-0.175-2.768-2.563-4.554-7.01-6.258-10.362-1.074-4.484-2.906-8.608-3.75-13.212-0.063-1.751-0.238-3.473-0.428-5.215-0.409-8.414 0.368-15.885 2.713-23.965l1.706-4.086c3.83-7.413 9.656-16.611 16.676-21.421z" fill="#7A5A26"/> <path transform="scale(1.9531)" d="m288.16 432.57c16.413-7.272 48.777-7.116 66.895-6.088 6.284 0.886 12.635 1.345 18.903 2.282 2.6 0.565 5.196 1.141 7.82 1.584 23.024 5.907 46.673 19.153 62.47 37.103-3.057 7.025-6.407 13.508-8.421 20.956-4.073 16.591-3.342 32.187 0.398 48.69l1.943 5.576c-6.012-2.015-11.959-4.279-17.89-6.52-1.806-5.823-3.653-11.292-6.58-16.653-0.579-1.291-1.661-2.653-2.437-3.857-3.225-3.871-6.66-7.317-10.276-10.815-2.293-1.227-4.625-2.798-6.633-4.445-13.044-6.977-25.536-10.626-40.416-8.317-9.804 1.844-19.428 5.397-27.232 11.768-7.02 4.81-12.846 14.008-16.676 21.421-0.927-0.141-1.736-0.283-2.591-0.695-8.152-3.924-13.675-29.829-15.798-38.047-1.372-4.365-1.63-9.073-2.88-13.504-0.885-7.212-1.666-14.457-2.935-21.613-0.253-4.324-1.81-13.394 0.831-17.078l1.505-1.748z" fill="#5BA402"/> <path transform="scale(1.9531)" d="m392.76 493.2 1.059-0.682c3.268 4.148 17.167 17.718 18.378 20.868l-0.912 0.498-0.028 1.765c-3.225-3.871-6.66-7.317-10.276-10.815-0.257-3.434-6.012-8.941-8.221-11.634z" fill="#73BF09"/> <path transform="scale(1.9531)" d="m411.26 515.64 0.028-1.765 0.912-0.498c6.179 6.521 16.603 19.629 24.024 23.717l1.943 5.576c-6.012-2.015-11.959-4.279-17.89-6.52-1.806-5.823-3.653-11.292-6.58-16.653-0.579-1.291-1.661-2.653-2.437-3.857z" fill="#73BF09"/> <path transform="scale(1.9531)" d="m292.91 438.37c5.017-0.247 10.671 0.958 15.633 1.812 24.043 4.134 46.48 12.87 64.848 29.382 7.586 6.821 13.965 15.094 20.435 22.948l-1.059 0.682c2.209 2.693 7.964 8.2 8.221 11.634-2.293-1.227-4.625-2.798-6.633-4.445-13.044-6.977-25.536-10.626-40.416-8.317-8.558-14.494-30.758-33.041-44.555-42.903-5.174-3.698-10.819-6.686-15.966-10.419l-0.508-0.374z" fill="#73BF09"/> <path transform="scale(1.9531)" d="m388.09 487.87c1.747 1.653 3.193 3.444 4.674 5.327 2.209 2.693 7.964 8.2 8.221 11.634-2.293-1.227-4.625-2.798-6.633-4.445-0.507-3.009-4.809-9.067-6.262-12.516z" fill="#5BA402"/> <path transform="scale(1.9531)" d="m288.16 432.57c16.413-7.272 48.777-7.116 66.895-6.088 6.284 0.886 12.635 1.345 18.903 2.282 2.6 0.565 5.196 1.141 7.82 1.584 23.024 5.907 46.673 19.153 62.47 37.103-3.057 7.025-6.407 13.508-8.421 20.956-2.876-3.852-5.384-7.983-8.314-11.814-5.576-7.288-11.889-13.837-19.485-19.039-21.735-14.882-54.558-20.345-80.531-20.989-12.403-0.307-25.51 1.099-37.782-0.578l-0.774-0.11-2.286-1.559 1.505-1.748z" fill="#297900"/> <path transform="scale(1.9531)" d="m286.65 434.32 2.286 1.559c1.271 0.927 2.482 1.929 3.966 2.493l0.508 0.374c5.147 3.733 10.792 6.721 15.966 10.419 13.797 9.862 35.997 28.409 44.555 42.903-9.804 1.844-19.428 5.397-27.232 11.768-7.02 4.81-12.846 14.008-16.676 21.421-0.927-0.141-1.736-0.283-2.591-0.695-8.152-3.924-13.675-29.829-15.798-38.047-1.372-4.365-1.63-9.073-2.88-13.504-0.885-7.212-1.666-14.457-2.935-21.613-0.253-4.324-1.81-13.394 0.831-17.078z" fill="#84C730"/> <path transform="scale(1.9531)" d="m178.22 385.26c5.929 4.282 11.947 8.985 18.269 12.652 1.905-4.133 2.256-9.146 6.516-11.654 2.43 1.729 14.988 6.627 17.556 6.589 1.314 8.293 3.182 15.776 6.232 23.62 13.413 8.31 27.225 16.093 40.946 23.876 5.381 3.052 10.499 6.735 16.051 9.451 0.659 0.635 1.231 1.155 2.03 1.607 1.269 7.156 2.05 14.401 2.935 21.613 1.25 4.431 1.508 9.139 2.88 13.504 2.123 8.218 7.646 34.123 15.798 38.047 0.855 0.412 1.664 0.554 2.591 0.695l-1.706 4.086c-2.345 8.08-3.122 15.551-2.713 23.965-34.072 4.816-60.831 2.113-90.223-17.319-26.377-17.44-49.391-47.896-55.552-79.286-3.553-18.103-0.275-38.265 7.991-54.671 2.957-5.868 6.725-11.339 10.399-16.775z" fill="#EDB631"/> <path transform="scale(1.9531)" d="m206.51 428.86c7.108 3.729 13.805 8.154 20.841 12.011 20.215 11.081 40.807 21.796 61.404 32.143 1.25 4.431 1.508 9.139 2.88 13.504-12.111 2.021-25.083 2.575-37.375 2.509-18.417-0.099-46.462-1.561-60.015-15.513-6.111-6.291-8.913-15.316-8.769-23.97 0.093-5.57 0.995-12.181 5.334-16.095 4.44-4.007 9.991-4.771 15.7-4.589z" fill="#F4CC27"/> <path transform="scale(1.9531)" d="m178.22 385.26c5.929 4.282 11.947 8.985 18.269 12.652 1.905-4.133 2.256-9.146 6.516-11.654 2.43 1.729 14.988 6.627 17.556 6.589 1.314 8.293 3.182 15.776 6.232 23.62 13.413 8.31 27.225 16.093 40.946 23.876 5.381 3.052 10.499 6.735 16.051 9.451 0.659 0.635 1.231 1.155 2.03 1.607 1.269 7.156 2.05 14.401 2.935 21.613-20.597-10.347-41.189-21.062-61.404-32.143-7.036-3.857-13.733-8.282-20.841-12.011-5.777-3.08-9.85-4.143-16.421-3.829-5.134 2.849-7.794 6.872-9.44 12.465-4.756 16.16-0.068 33.065 7.846 47.369q0.601 1.101 1.228 2.187 0.628 1.086 1.282 2.156 0.655 1.07 1.335 2.123 0.68 1.054 1.386 2.09 0.707 1.036 1.438 2.055 0.732 1.019 1.488 2.019 0.756 1.001 1.537 1.982 0.781 0.982 1.586 1.944 0.804 0.962 1.633 1.903 0.828 0.942 1.679 1.863t1.725 1.821q0.873 0.9 1.769 1.778 0.895 0.878 1.812 1.734t1.855 1.688q0.937 0.833 1.895 1.643 0.958 0.809 1.936 1.595 0.977 0.786 1.974 1.547 0.996 0.761 2.011 1.498 1.015 0.736 2.048 1.448 1.033 0.711 2.083 1.397 1.051 0.685 2.117 1.345 1.067 0.66 2.15 1.293 1.082 0.633 2.18 1.239t2.211 1.185q1.112 0.579 2.239 1.13 1.126 0.552 2.266 1.075 1.139 0.524 2.292 1.019 1.152 0.495 2.316 0.962 1.164 0.466 2.339 0.904 1.176 0.438 2.361 0.847 1.186 0.408 2.381 0.788 1.196 0.379 2.4 0.729c11.437 3.252 24.743 4.5 36.533 2.634 4.688-0.742 21.211-7.405 21.273-7.406 0.366-7e-3 0.71 0.177 1.065 0.266-2.345 8.08-3.122 15.551-2.713 23.965-34.072 4.816-60.831 2.113-90.223-17.319-26.377-17.44-49.391-47.896-55.552-79.286-3.553-18.103-0.275-38.265 7.991-54.671 2.957-5.868 6.725-11.339 10.399-16.775z" fill="#E3E76C"/> <path transform="scale(1.9531)" d="m196.49 397.91c1.905-4.133 2.256-9.146 6.516-11.654 2.43 1.729 14.988 6.627 17.556 6.589 1.314 8.293 3.182 15.776 6.232 23.62-10.003-6.225-20.571-11.961-30.304-18.555z" fill="#73BF09"/> <path transform="scale(1.9531)" d="m464.4 443.44c2.355-1.894 4.738-3.704 7.26-5.373 19.18-12.689 42.413-14.564 64.491-9.999l7.11 1.812c4.636 1.879 9.103 3.917 13.39 6.508l4.229 2.508c16.924 11.821 27.036 23.903 37.078 41.91 1.945 4.704 3.673 9.308 4.937 14.255 0.664 2.601 0.944 5.871 1.851 8.325 0.866 8.061 0.381 15.795 0.727 23.823-1.712 4.881-1.627 10.354-3.401 15.385-2.184 5.499-4.447 10.9-7.152 16.171-2.712 4.152-5.371 8.345-8.342 12.318-14.074 14.437-34.243 28.78-54.827 31.354-5.223 0.25-10.462 0.612-15.691 0.374-6.178-0.866-12.205-1.897-18.173-3.762-26.612-8.315-44.238-25.295-56.92-49.692l-2.803-6.683-1.943-5.576c-3.74-16.503-4.471-32.099-0.398-48.69 2.014-7.448 5.364-13.931 8.421-20.956 5.645-8.908 12.574-16.719 20.156-24.012z" fill="#DA2209"/> <path transform="scale(1.9531)" d="m563.02 572.61c-0.739 1.341-1.803 2.317-3.002 3.238-12.431 9.547-31.803 11.113-46.769 8.84-18.264-2.774-40.296-16.286-50.646-31.56-3.418-5.043-5.792-12.114-8.685-15.985-0.551-0.738-1.04-1.248-1.143-2.201-0.024-0.222-0.024-0.445-0.035-0.668l-0.202 1.535 0.166-0.789-0.478 1.216c-1.05 0.478-1.102 0.553-2.216 0.306l-0.45-1.497-0.33 0.226c-0.053 1.003-0.178 2.095 0.204 3.047 2.027 5.049 5.156 11.766 8.276 16.119 1.848 2.579 4.478 4.857 6.622 7.217 1.15 1.266 1.781 2.782 2.901 4.045 2.933 3.308 7.221 6.153 10.803 8.718 7.272 5.209 20.727 13.304 29.653 14.936 2.538 0.464 5.172 0.424 7.729 0.764 2.195 0.291 4.256 1.051 6.492 1.118 6.794 0.203 14.629-1.123 21.345-2.241l0.158 0.824 0.689-0.704c-7.002 2.375-16.718 2.585-24.083 2.25-21.103-0.963-42.148-13.234-56.138-28.656-14.386-15.857-20.802-36.331-19.737-57.586 1.051-20.988 7.632-38.226 23.483-52.426 14.613-13.091 34.19-17.584 53.41-16.489 15.919 0.907 33.691 7.432 44.494 19.617-0.146-0.045-0.292-0.088-0.438-0.136-6.105-2.019-11.893-5.988-17.929-8.48-19.061-7.871-40.337-5.891-58.692 3.006-17.019 8.25-29.34 19.94-35.479 38.192-6.357 18.898-3.448 37.938 5.343 55.54 9.327 18.676 26.55 30.991 46.148 37.46 15 4.952 34.368 4.387 48.556-2.838 3.483-1.773 6.593-4.075 9.98-5.958z" fill="#EF4626"/> <path transform="scale(1.9531)" d="m563.02 572.61c-3.387 1.883-6.497 4.185-9.98 5.958-14.188 7.225-33.556 7.79-48.556 2.838-19.598-6.469-36.821-18.784-46.148-37.46-8.791-17.602-11.7-36.642-5.343-55.54 6.139-18.252 18.46-29.942 35.479-38.192 18.355-8.897 39.631-10.877 58.692-3.006 6.036 2.492 11.824 6.461 17.929 8.48 0.146 0.048 0.292 0.091 0.438 0.136 4.404 3.837 8.988 7.778 12.753 12.256 9.534 11.34 16.367 27.489 17.42 42.296 1.285 18.069-5.402 34.357-17.276 47.795q-7.077 7.888-15.408 14.439z" fill="#F4754F"/> <path transform="scale(1.9531)" d="m501.39 515.93c-10.445 2.465-21.144 8.498-32.216 6.651-3.156-0.526-5.733-1.919-7.551-4.604-3.524-5.203-2.994-13.426-1.988-19.385 1.992-11.803 7.548-21.964 17.447-28.861 4.185-2.915 8.783-5.259 13.369-7.473 14.396-6.95 23.704-7.633 39.275-4.847-2.934 7.718-7.169 29.75-13.358 33.915-1.287 0.179-1.357 0.241-2.477-0.39-0.933-1.566-0.814-1.588-0.506-3.407l-2.879-1.928c-0.733 0.466-1.492 1.101-2.349 1.259-0.376 0.146-0.867 0.367-1.269 0.385-1.362 0.063-1.654-0.294-2.418-1.244l-0.693 1.194c-1.634 0.407-2.858 0.223-4.508-0.04l-1.905 2.223 0.309 0.959c-1.242 1.825-3.666 2.389-5.732 2.745-0.203 0.035-0.407 0.063-0.611 0.094l-1.475 1.02c1.09 1.388 1.621 1.819 1.857 3.601-0.528 1.149-1.074 2.149-1.775 3.209-1.402 1.488-1.786 1.626-3.868 1.709-0.24 0.01-0.481 0.01-0.722 0.014 2.231 0.061 3.539 0.621 5.16 2.189 0.873 0.844 1.317 1.307 1.325 2.564-0.326 0.222-0.819 0.622-1.174 0.775l0.715 1.003-0.334 1.562c4.579 0.169 6.878 2.478 10.351 5.108z" fill="#DA2209"/> <path transform="scale(1.9531)" d="m502.31 476.76c-0.512-1.44-1.234-3.527-1.184-5.056 0.056-1.731 0.51-3.262 1.722-4.47l0.976 0.359c1.23 1.697 1.233 3.327 1.416 5.367-0.2 0.266-0.404 0.528-0.599 0.797-0.688 0.948-0.796 1.575-0.955 2.732-0.064 0.47-0.15 0.936-0.222 1.404l-1.154-1.133z" fill="#F4CC27"/> <defs> <linearGradient id="c" x1="502.62" x2="507.88" y1="477.4" y2="482.6" gradientUnits="userSpaceOnUse"> <stop stop-color="#ECCA34" offset="0"/> <stop stop-color="#F0B249" offset="1"/> </linearGradient> </defs> <path transform="scale(1.9531)" d="m502.31 476.76 1.154 1.133c0.072-0.468 0.158-0.934 0.222-1.404 0.159-1.157 0.267-1.784 0.955-2.732 0.195-0.269 0.399-0.531 0.599-0.797 0.594 4.687 1.315 9.43 2.913 13.897-0.376 0.146-0.867 0.367-1.269 0.385-1.362 0.063-1.654-0.294-2.418-1.244-0.818-3.069-1.632-6.102-2.156-9.238z" fill="url(#c)"/> <path transform="scale(1.9531)" d="m497.36 489.38c-2.551-2.61-8.043-8.38-8.994-11.883-0.408-1.5-0.116-1.783 0.557-3.098 2.208 0.256 7.033 9.91 9.846 12.338l0.496 0.42-1.905 2.223z" fill="#F4CC27"/> <path transform="scale(1.9531)" d="m489.86 494.2c-3.523-2.538-9.418-4.171-12.062-7.605-0.745-0.967-0.667-1.154-0.513-2.292 0.907-0.735 1.42-1.256 2.687-1.206 3.721 0.144 9.008 7.471 11.363 10.083l-1.475 1.02z" fill="#EDB631"/> <path transform="scale(1.9531)" d="m510.51 485.6 0.086-0.511c0.55-3.472-0.228-11.231 2.443-13.569 0.813-0.712 1.109-0.734 2.131-0.575 1.326 1.454 1.504 3.827 1.383 5.724-0.23 3.585-1.971 7.499-3.164 10.859l-2.879-1.928z" fill="#EDB631"/> <path transform="scale(1.9531)" d="m491.04 510.82c-5.376 1.251-13.638 5.15-18.954 2.778-0.701-0.847-0.922-0.755-0.86-1.911 3.929-2.664 14.542-2.857 19.433-3.432l0.715 1.003-0.334 1.562z" fill="#EDB631"/> <path transform="scale(1.9531)" d="m485.35 502.73c-3.65-0.319-11.332-0.108-13.705-3.331-0.728-0.987-0.671-1.812-0.388-2.914 0.157-0.091 0.306-0.2 0.472-0.273 3.578-1.571 14.476 3.595 18.211 4.795-1.402 1.488-1.786 1.626-3.868 1.709-0.24 0.01-0.481 0.01-0.722 0.014z" fill="#EDB631"/> <path transform="scale(1.9531)" d="m542.42 495.86c-1.806 1.082-3.386 2.161-5.578 1.567-0.903-0.244-1.063-0.725-1.622-1.416-1.346-7.237 8.373-23.638 11.558-30.905 13.435 5.529 25.005 16.174 30.648 29.688 4.773 11.432 6.642 21.06 1.764 32.833-4.407 10.636-15.277 27.75-24.581 34.902-2.563 1.97-5.638 3.39-8.628 4.584-12.37 4.936-27.774 9.752-40.635 3.897-4.281-1.95-7.753-5.08-9.38-9.568-1.955-5.393-1.188-11.774 1.27-16.872 3.223-6.686 9.68-12.204 16.364-15.254l-1.099 9.41 1.322-0.221c0.462-1.602 0.48-2.285 1.741-3.419 1.566-0.081 2.415 0.166 3.6 1.239 2.745 2.485 4.444 5.41 5.152 9.012 0.558-1.961 1.195-1.944 2.895-2.963 0.238-1.052 0.294-1.257 1.015-2.047 4.808 0.403 8.873 13.472 14.47 15.101 1.31 0.381 1.891-0.047 2.968-0.654 2.246-4.276-6.755-16.248-6.992-21.121-0.067-1.391 0.304-1.702 1.183-2.626 1.675-0.096 2.076 0.346 3.494 1.177l1.148-2.268-0.788-1.241c0.598-1.896 2.2-3.208 3.732-4.382l1.126-3.348c0.011-0.389 0.014-1.134 0.107-1.495 0.318-1.245 1.312-1.458 2.343-2.002l-0.59-0.301c2.224-0.278 4.672-0.336 6.846-0.778 1.329-0.27 2.423-0.677 3.196-1.836-0.115-1.307-0.105-1.258-1.059-2.162-2.536-0.685-5.331 0.164-7.913 0.461l0.063-0.524c-1.269-0.235-0.689 0-1.745-0.687 0.159-6.577 15.755-9.666 19.196-14.661 0.747-1.085 0.444-1.179 0.225-2.395-6.055-2.546-15.565 4.103-21.671 5.638-2.022 0.508-3.718 0.88-5.557-0.233-0.216-1.592 0.316-2.092 1.061-3.482l-0.649-0.648z" fill="#DA2209"/> <path transform="scale(1.9531)" d="m551.56 512.32c4.904-0.98 10.607-2.363 15.453-0.685l0.815 0.948c-0.359 1.247-0.782 1.716-1.918 2.388-3.907 2.311-10.443 2.595-14.893 2.489l-0.59-0.301c2.224-0.278 4.672-0.336 6.846-0.778 1.329-0.27 2.423-0.677 3.196-1.836-0.115-1.307-0.105-1.258-1.059-2.162-2.536-0.685-5.331 0.164-7.913 0.461l0.063-0.524z" fill="#FDB773"/> <defs> <linearGradient id="b" x1="562.74" x2="550.67" y1="528.19" y2="524.63" gradientUnits="userSpaceOnUse"> <stop stop-color="#EEB620" offset="0"/> <stop stop-color="#F1A434" offset="1"/> </linearGradient> </defs> <path transform="scale(1.9531)" d="m548.57 520.96c4.615 1.981 11.506 3.392 15.012 6.977l0.456 1.287c-0.476 0.98-0.525 1.111-1.45 1.668-5.017-1.982-10.04-5.028-15.144-6.584l1.126-3.348z" fill="url(#b)"/> <path transform="scale(1.9531)" d="m542.42 495.86 0.512-0.712c2.921-4.123 5.01-8.561 10.815-9.28 1.05-0.13 1.669-7e-3 2.656 0.305 0.377 0.655 0.674 0.784 0.436 1.581-0.899 3.012-5.069 5.038-7.732 6.232q-2.998 1.312-6.038 2.522l-0.649-0.648z" fill="#F4CC27"/> <path transform="scale(1.9531)" d="m544.5 529.93c4.404 2.05 13.834 5.387 15.397 10.383 0.2 0.64 0.162 0.711 0.153 1.291-0.82 0.666-0.942 0.781-2.059 0.666-4.952-0.505-10.917-6.913-14.639-10.072l1.148-2.268z" fill="#EDB631"/> <path transform="scale(1.9531)" d="m527.21 542.37c1.791 4.612 2.414 9.568 3.078 14.441-0.752 1.776-1.241 3.259-2.8 4.462-0.873 0.076-0.868 0.291-1.414-0.228-3.011-2.861-1.931-11.868-1.759-15.712 0.558-1.961 1.195-1.944 2.895-2.963z" fill="#F4CC27"/> <path transform="scale(1.9531)" d="m512.5 538.72 1.322-0.221c0.613 5.622 1.313 13.42-1.049 18.666-0.692 1.535-1.443 2.468-3.047 3.075-0.789-0.231-1.151-0.156-1.645-0.885-3.657-5.4 2.981-14.602 4.309-20.138 0.039-0.165 0.073-0.332 0.11-0.497z" fill="#F4CC27"/> <defs> <linearGradient id="a" x1="658.6" x2="365.25" y1="809.28" y2="321.54" gradientUnits="userSpaceOnUse"> <stop stop-color="#404F3A" offset="0"/> <stop stop-color="#879062" offset="1"/> </linearGradient> </defs> <path transform="scale(1.9531)" d="m72.842 487.1c2.5165 3.608 3.8253 7.926 6.1138 11.678 2.7991 4.59 6.7813 8.404 9.8832 12.773 72.402 78.788 257.87 108.53 361.78 112.88 28.202 1.182 56.62 2.073 84.848 1.502 19.052-0.384 38.131-1.691 57.16-2.709 21.978-1.236 44.123-2.839 65.942-5.801 6.748 0.439 30.783-3.898 38.858-5.237 73.154-12.137 149.55-34.996 212.35-75.357-4.509 12.906-11.256 25.814-17.431 37.998-45.531 89.825-129.57 173.94-220.5 217.78q-14.109 6.885-28.67 12.753t-29.501 10.69c-4.981 1.566-15.42 2.938-18.55 7.193-0.066 1.352 4e-3 1.488 0.69 2.664 0.827 0.288 1.493 0.43 2.346 0.586 2.025 0.37 3.745 2.046 5.665 2.843 1.719 0.713 3.732 0.451 5.499 1.506 0.56 0.334 0.654 0.507 1.021 0.949-0.273 1.775-1.965 2.695-2.972 4.198 0.661 0.855 0.901 0.678 1.92 0.88 1.802-0.793 3.462-1.626 5.459-1.766l0.514 0.419c-1.523 1.277-12.393 3.184-15.391 4.118l0.118 0.548c-0.147 0.069-0.29 0.146-0.441 0.207-9.084 3.668-35.021 6.232-45.404 7.289q-5.878 0.615-11.772 1.059-5.894 0.443-11.798 0.713-5.905 0.271-11.814 0.369-5.91 0.097-11.82 0.022t-11.815-0.323-11.801-0.668q-5.895-0.421-11.776-1.014-5.881-0.592-11.741-1.357-5.861-0.765-11.697-1.7-5.836-0.936-11.642-2.042t-11.577-2.381q-5.772-1.276-11.503-2.719-5.731-1.444-11.418-3.054-5.687-1.611-11.324-3.387-5.638-1.776-11.22-3.717-5.583-1.94-11.107-4.043c-12.499-4.727-24.32-10.868-36.606-16.049-14.008-7.145-27.876-14.501-41.244-22.798-79.026-49.048-138.97-123.22-181.38-205.14-15.275-29.508-28.632-59.911-36.245-92.353z" fill="url(#a)"/> <path transform="scale(1.9531)" d="m88.839 511.55c72.402 78.788 257.87 108.53 361.78 112.88 28.202 1.182 56.62 2.073 84.848 1.502 19.052-0.384 38.131-1.691 57.16-2.709-7.078 10.781-16.67 20.937-25.497 30.292-38.056 40.33-80.185 66.648-134.91 77.933-69.412 14.314-150.44-0.302-209.71-39.399-13.288-8.766-25.234-18.755-36.861-29.593-9.104-8.486-17.936-17.037-26.06-26.48-5.984-6.956-11.281-14.427-16.579-21.908-15.696-22.16-28.818-44.847-40.182-69.53-3.5082-7.62-12.414-25.277-13.986-32.992z" fill="#838E6C"/> <path transform="scale(1.9531)" d="m174.59 576.58c8.922-0.431 16.329 1.622 24.363 5.445 22.684 10.794 45.236 32.867 53.507 56.952 2.496 7.269 3.701 16.759 0.017 23.804-3.124 5.975-8.659 8.809-14.842 10.622-12.489 1.222-23.096-1.6-34.03-7.738-20.778-11.662-37.61-32.66-43.864-55.682-2.037-7.5-3.206-17.743 1.025-24.666 3.076-5.034 8.27-7.486 13.824-8.737z" fill="#C0D9BB"/> </svg>