<svg width="520" height="145" xmlns="http://www.w3.org/2000/svg">

 <g>
  <title>Layer 1</title>
  <path stroke="null" id="svg_1" clip-rule="evenodd" d="m516.22601,-5.60783l-509.07571,0a12.02531,11.64726 0 0 0 -11.99928,11.61785l0,133.08218a12.02965,11.65147 0 0 0 11.99928,11.62205l509.08005,0a12.02531,11.64726 0 0 0 11.99494,-11.62205l0,-133.08218a12.02531,11.64726 0 0 0 -11.99928,-11.61785z" fill-rule="evenodd" fill="#1DA1F2"/>
  <path stroke="null" id="svg_2" d="m147.94224,146.03614l0,-147.29786l9.56703,0l0,147.29786l-9.56703,0z" fill="#1A91DA"/>
  <path stroke="null" id="svg_4" d="m231.05605,81.02861l-0.81595,11.16401l-9.82875,-0.45978l-0.89522,0l-0.37301,21.64793l0.59215,16.05874l-14.89233,0l0.74602,-14.52615l-0.37301,-23.17574l-0.96982,0l-9.90335,0.45978l-0.89522,-1.07282l0.82062,-11.16401l35.96259,0l0.82528,1.06803zm54.2726,48.4109l-15.78288,0l-4.54137,-17.89307l-0.89056,0l-4.16836,17.89307l-15.85748,0l-11.32078,-49.47893l14.44472,0l0.74602,7.64862l4.69057,26.46124l0.89056,0l5.58579,-22.5627l-2.53179,-11.54716l15.04153,0l1.04442,9.17642l5.05891,24.93344l0.89056,0l5.88419,-25.54647l1.33816,-8.56339l13.6987,0l-14.22091,49.47893zm32.39104,-16.05874l0.59681,16.05874l-14.96693,0l0.74135,-14.52615l-0.74135,-34.95279l15.19073,0l-0.82062,33.42019zm43.7025,-32.35216l-0.82062,11.16401l-9.82409,-0.45978l-0.89056,0l-0.37301,21.64793l0.59681,16.05874l-14.89233,0l0.74602,-14.52615l-0.37301,-23.17574l-0.96982,0l-9.90335,0.45978l-0.89056,-1.07282l0.82062,-11.16401l35.95793,0l0.81595,1.06803zm38.63892,0l-0.81595,11.16401l-9.82875,-0.45978l-0.89522,0l-0.37301,21.64793l0.59681,16.05874l-14.88766,0l0.74135,-14.52615l-0.36834,-23.17574l-0.96982,0l-9.90335,0.45978l-0.89056,-1.07282l0.82062,-11.16401l35.96259,0l0.81129,1.06803zm38.27057,36.17408l0.82062,1.07282l-0.89056,11.16401l-33.95301,0l0.74602,-14.52615l-0.74602,-34.95279l34.54516,0l0.82062,1.07282l-0.96516,11.16401l-11.83833,-0.45978l-7.66997,0l-0.1492,6.95895l7.37156,0l7.73991,-0.22989l0.82062,1.07282l-0.89056,11.16401l-8.63979,-0.22989l-6.70481,0l-0.0746,2.90714l0.1492,4.28169l7.14776,0l12.36054,-0.45978zm37.96751,-7.26547a261.94921,269.07133 0 0 0 10.72397,15.90548l-0.2238,1.68586c-5.06358,1.58049 -10.05255,2.51921 -14.96693,2.83051l-1.41277,-1.22608l-0.89522,-1.91096c-0.39632,-0.81419 -1.18896,-2.53357 -2.38259,-5.15815a144.5311,148.46075 0 0 1 -3.1286,-7.38041l-4.98431,0l0.51755,14.75603l-14.96227,0l0.74135,-14.52615l-0.74135,-34.95279l22.85604,-0.07663c5.40861,0 9.57697,1.3075 12.50974,3.93686c2.92811,2.62457 4.3875,6.40817 4.3875,11.35559c0,2.90236 -0.70405,5.63708 -2.12148,8.18503s-3.38504,4.74147 -5.91683,6.5758zm-7.66531,-13.22823c0,-2.04027 -0.50822,-3.55371 -1.52467,-4.5499c-1.02111,-0.9914 -2.667,-1.54218 -4.95634,-1.64275l-2.67633,0.22989l-0.29841,12.76845l5.43658,0.30652c1.38945,-0.66572 2.41056,-1.55654 3.054,-2.68204c0.64344,-1.11592 0.96516,-2.60063 0.96516,-4.43016zm-267.76347,-63.5022l-0.13055,6.59017l3.46431,0l4.78848,-0.12931l0.387,0.52683l-0.42896,5.27309l-5.25474,-0.1341l-3.03535,0l-0.04663,1.53739l0.26111,9.095l-6.97524,0l0.387,-8.39097l-0.387,-19.94771l17.27957,0l0.387,0.52683l-0.47092,5.27309l-6.67217,-0.26342l-3.5529,0.0431zm25.88672,-6.02023c3.93523,0 6.97058,1.20692 9.11071,3.62555c2.14013,2.41384 3.20786,5.8526 3.20786,10.30192c0,4.86121 -1.17031,8.63523 -3.50627,11.31248s-5.63241,4.01828 -9.88004,4.01828c-3.90725,0 -6.92862,-1.24045 -9.06875,-3.71176s-3.20786,-5.98192 -3.20786,-10.52224c0,-4.79894 1.16099,-8.50591 3.48762,-11.11133c2.32197,-2.6102 5.6091,-3.91291 9.85672,-3.91291zm-0.59681,5.70892c-1.34283,0 -2.41056,0.27299 -3.20786,0.81419c-0.7973,0.5412 -1.38479,1.42244 -1.75314,2.63894c-0.37301,1.21171 -0.55485,2.86404 -0.55485,4.94263c0,2.49047 0.1865,4.44453 0.55485,5.86697c0.37301,1.42244 0.96516,2.43779 1.77645,3.05562s1.91633,0.92435 3.3151,0.92435c1.36614,0 2.45252,-0.27299 3.24983,-0.81419c0.7973,-0.5412 1.37547,-1.42723 1.72982,-2.6581c0.35902,-1.23087 0.5362,-2.91193 0.5362,-5.05278c0,-2.46173 -0.1865,-4.39185 -0.55951,-5.79992c-0.36834,-1.40807 -0.95583,-2.40905 -1.75314,-3.00772c-0.7973,-0.60825 -1.907,-0.90998 -3.33375,-0.90998zm33.97166,17.75418l-0.47092,5.3162l-15.52644,0l0.387,-8.39097l-0.387,-19.94771l7.05917,0l-0.387,19.24367l0.12589,3.25198l8.77034,0l0.42896,0.52683zm20.41284,0l-0.47092,5.3162l-15.5311,0l0.387,-8.39097l-0.387,-19.94771l7.05917,0l-0.387,19.24367l0.13055,3.25198l8.76568,0l0.43362,0.52683zm14.76644,-23.4631c3.93523,0 6.97058,1.20692 9.11071,3.62555s3.20786,5.8526 3.20786,10.30192c0,4.86121 -1.17031,8.63523 -3.51093,11.31248c-2.33596,2.68204 -5.62775,4.01828 -9.88004,4.01828c-3.90725,0 -6.92395,-1.24045 -9.06408,-3.71176s-3.20786,-5.98192 -3.20786,-10.52224c0,-4.79894 1.16099,-8.50591 3.48762,-11.11133c2.32197,-2.6102 5.6091,-3.91291 9.85672,-3.91291zm-0.59681,5.70892c-1.34283,0 -2.41056,0.27299 -3.20786,0.81419c-0.7973,0.5412 -1.38479,1.42244 -1.75314,2.63894c-0.37301,1.21171 -0.55485,2.86404 -0.55485,4.94263c0,2.49047 0.18184,4.44453 0.55485,5.86697c0.36834,1.42244 0.96049,2.43779 1.77645,3.05562c0.81129,0.61304 1.91633,0.92435 3.3151,0.92435c1.3708,0 2.44786,-0.27299 3.24983,-0.81419c0.7973,-0.5412 1.37547,-1.42723 1.72982,-2.6581c0.35902,-1.23087 0.5362,-2.91193 0.5362,-5.05278c0,-2.46173 -0.1865,-4.39185 -0.55485,-5.79992c-0.37301,-1.40807 -0.95583,-2.40905 -1.7578,-3.00772c-0.7973,-0.60825 -1.907,-0.90998 -3.33375,-0.90998zm44.32262,23.07037l-7.31561,0l-3.45964,-12.21288l-0.42896,0l-3.42234,12.21288l-7.35291,0l-7.23168,-28.33867l6.7561,0l0.4243,3.86502l3.98186,17.22256l0.42896,0l4.06112,-14.3202l-1.71117,-6.76737l7.0172,0l0.59681,4.56905l4.15437,16.51852l0.4243,0l4.66726,-16.82983l0.7227,-4.26254l6.41573,0l-8.72838,28.34346zm43.0917,-13.97058l-0.04196,4.08533c0.02798,3.30945 -0.96516,5.85739 -2.97474,7.64383c-2.01424,1.78643 -4.86775,2.68204 -8.57451,2.68204c-3.59486,0 -6.33647,-0.88124 -8.2388,-2.63415c-1.89301,-1.7577 -2.80222,-4.2769 -2.71363,-7.55762l0.08393,-4.30564l-0.16785,-14.2771l6.92862,0l-0.29841,17.62008c-0.02798,1.87264 0.34037,3.25198 1.1097,4.12843s1.96761,1.31708 3.59486,1.31708c1.65522,0 2.87216,-0.43104 3.65547,-1.29313c0.78798,-0.86688 1.16565,-2.19353 1.13301,-3.97996l-0.29374,-17.79249l7.05917,0l-0.26111,14.36331zm16.65012,-14.80872c2.45252,0 4.93302,0.49809 7.44616,1.49428l-1.11436,5.97713l-1.02577,0.39752a16.04865,16.485 0 0 0 -3.24983,-1.71459a8.4393,8.66875 0 0 0 -2.82087,-0.61304c-0.94184,0 -1.68786,0.23947 -2.24271,0.72319a2.11682,2.17437 0 0 0 -0.8346,1.69544c0,0.73277 0.34503,1.35539 1.04908,1.86785c0.69473,0.51246 1.80442,1.12071 3.3151,1.82475c1.59461,0.76151 2.88615,1.45597 3.86995,2.08816c0.98381,0.62741 1.84172,1.47034 2.56443,2.524c0.72736,1.05366 1.09105,2.342 1.09105,3.86502c0,1.70022 -0.45227,3.23761 -1.34749,4.61216s-2.17743,2.46652 -3.82799,3.27593c-1.65056,0.80461 -3.56222,1.20692 -5.73033,1.20692a22.61825,23.23321 0 0 1 -8.5512,-1.7577l0.98381,-6.36986l0.72736,-0.43583c1.19362,1.02492 2.49915,1.81996 3.91192,2.39468c1.41277,0.56993 2.6297,0.8573 3.65547,0.8573c1.08172,0 1.90234,-0.24905 2.45719,-0.74714a2.20541,2.26537 0 0 0 0.83927,-1.7577c0,-0.79503 -0.35902,-1.45118 -1.06773,-1.97801a20.70192,21.26478 0 0 0 -3.33842,-1.8487a36.20504,37.18942 0 0 1 -3.78603,-2.04027a8.61181,8.84596 0 0 1 -2.54578,-2.524c-0.71338,-1.05845 -1.06773,-2.342 -1.06773,-3.86981c0,-1.72896 0.45227,-3.29029 1.34749,-4.67921s2.14946,-2.48089 3.76271,-3.27593a12.589,12.93129 0 0 1 5.52984,-1.19255zm32.95988,0c3.93523,0 6.97058,1.20692 9.11071,3.62555c2.13547,2.41384 3.20786,5.8526 3.20786,10.30192c0,4.86121 -1.17031,8.63523 -3.51093,11.31248c-2.33596,2.68204 -5.63241,4.01828 -9.88004,4.01828c-3.90725,0 -6.92862,-1.24045 -9.06408,-3.71176c-2.14013,-2.4761 -3.20786,-5.98192 -3.20786,-10.52224c0,-4.79894 1.16099,-8.50591 3.48762,-11.11133c2.32197,-2.6102 5.6091,-3.91291 9.85672,-3.91291zm-0.60147,5.70892c-1.33816,0 -2.41056,0.27299 -3.20786,0.81419s-1.38479,1.42244 -1.75314,2.63894c-0.37301,1.21171 -0.55485,2.86404 -0.55485,4.94263c0,2.49047 0.18184,4.44453 0.55485,5.86697c0.36834,1.42244 0.96049,2.43779 1.77645,3.05562c0.81129,0.61304 1.91633,0.92435 3.3151,0.92435c1.36614,0 2.44786,-0.27299 3.24983,-0.81419c0.7973,-0.5412 1.37547,-1.42723 1.72982,-2.6581c0.35436,-1.23087 0.53154,-2.91193 0.53154,-5.05278c0,-2.46173 -0.18184,-4.39185 -0.55485,-5.79992c-0.36834,-1.40807 -0.95583,-2.40905 -1.75314,-3.00772c-0.79264,-0.60825 -1.90234,-0.90998 -3.33375,-0.90998zm41.75819,14.10947l0.25644,8.9609l-7.52543,0l-9.79611,-17.52908l-0.42896,0l-0.04196,7.55762l0.25644,9.97146l-6.28984,0l0.34037,-8.34786l-0.34037,-19.99081l7.48346,0l9.83807,17.53387l0.4243,0l-0.16785,-17.26566l6.37377,-0.39752l-0.38233,19.50709z" fill="#1A72AD"/>
  <path stroke="null" id="svg_5" d="m198.11322,30.39509l-0.13069,6.56852l3.46804,0l4.79364,-0.12889l0.38741,0.5251l-0.42942,5.25577l-5.26507,-0.12889l-3.03862,0l-0.04668,1.53234l0.26139,9.06513l-6.98275,0l0.38741,-8.36341l-0.38741,-19.88219l17.29819,0l0.38741,0.5251l-0.47143,5.25577l-6.67936,-0.26255l-3.55206,0.03819zm25.91461,-6.00046c3.93947,0 6.97809,1.20296 9.12052,3.61364c2.14244,2.41069 3.21132,5.83338 3.21132,10.26809c0,4.84524 -1.17157,8.60686 -3.51005,11.27532s-5.63848,4.00508 -9.89068,4.00508c-3.91146,0 -6.93608,-1.2316 -9.07851,-3.69957c-2.13777,-2.46797 -3.21132,-5.96227 -3.21132,-10.48767c0,-4.78795 1.16224,-8.48275 3.49138,-11.0796c2.32447,-2.59208 5.61514,-3.89529 9.86734,-3.89529zm-0.59745,5.69495c-1.34427,0 -2.41316,0.2721 -3.21132,0.80674c-0.79816,0.53942 -1.38628,1.41777 -1.75502,2.63027c-0.37341,1.20773 -0.55545,2.85463 -0.55545,4.92639c0,2.48229 0.1867,4.42993 0.55545,5.8477c0.37341,1.41777 0.9662,2.42978 1.77836,3.04558c0.81217,0.6158 1.91839,0.92131 3.31868,0.92131c1.36761,0 2.45517,-0.2721 3.25333,-0.81152s1.37695,-1.42254 1.73169,-2.64937c0.35941,-1.22682 0.53678,-2.90237 0.53678,-5.03618c0,-2.45365 -0.1867,-4.37742 -0.56011,-5.78087c-0.36874,-1.39867 -0.95686,-2.40114 -1.75502,-2.99784s-1.90906,-0.90222 -3.33735,-0.90222zm34.00825,17.69109l-0.47143,5.29873l-15.54316,0l0.38741,-8.36341l-0.38741,-19.88219l7.06677,0l-0.38741,19.18046l0.12603,3.2413l8.77979,0l0.42942,0.5251zm20.43483,0l-0.47143,5.29873l-15.54783,0l0.38741,-8.36341l-0.38741,-19.88219l7.06677,0l-0.38741,19.18046l0.13069,3.2413l8.77512,0l0.43409,0.5251zm14.78234,-23.38603c3.93947,0 6.97809,1.20296 9.12052,3.61364c2.14244,2.41069 3.21132,5.83338 3.21132,10.26809c0,4.84524 -1.17157,8.60686 -3.51472,11.27532c-2.33848,2.67323 -5.63381,4.00508 -9.89068,4.00508c-3.91146,0 -6.93141,-1.2316 -9.07385,-3.69957c-2.14244,-2.46797 -3.21132,-5.96227 -3.21132,-10.48767c0,-4.78795 1.16224,-8.48275 3.49138,-11.0796c2.32447,-2.59208 5.61514,-3.89529 9.86734,-3.89529zm-0.59745,5.69495c-1.34427,0 -2.41316,0.2721 -3.21132,0.80674c-0.79816,0.53942 -1.38628,1.41777 -1.75502,2.63027c-0.37341,1.20773 -0.55545,2.85463 -0.55545,4.92639c0,2.48229 0.18204,4.42993 0.55545,5.8477c0.36874,1.41777 0.96153,2.42978 1.77836,3.04558c0.81217,0.6158 1.91839,0.92131 3.31868,0.92131c1.37228,0 2.4505,-0.2721 3.25333,-0.81152c0.79816,-0.53942 1.37695,-1.42254 1.73169,-2.64937c0.35941,-1.22682 0.53678,-2.90237 0.53678,-5.03618c0,-2.45365 -0.1867,-4.37742 -0.55545,-5.78087c-0.37341,-1.39867 -0.95686,-2.40114 -1.75969,-2.99784c-0.79816,-0.60148 -1.90906,-0.90222 -3.33735,-0.90222zm44.37036,22.98982l-7.32349,0l-3.46337,-12.17277l-0.42942,0l-3.42603,12.17277l-7.36083,0l-7.23947,-28.24559l6.76338,0l0.42942,3.8571l3.98614,17.16599l0.42942,0l4.06549,-14.27317l-1.71302,-6.74514l7.02476,0l0.59745,4.55405l4.15885,16.46426l0.42475,0l4.67228,-16.76978l0.72348,-4.24853l6.42264,0l-8.74245,28.24082zm43.13811,-13.92469l-0.04201,4.07191c0.02801,3.29858 -0.9662,5.83815 -2.97794,7.61872c-2.01641,1.78534 -4.87299,2.67323 -8.58375,2.67323c-3.59873,0 -6.34329,-0.87835 -8.24768,-2.6255c-1.89505,-1.75192 -2.80524,-4.26286 -2.71655,-7.53279l0.08402,-4.2915l-0.16803,-14.2302l6.93608,0l-0.29873,17.5622c-0.02801,1.87126 0.34074,3.2413 1.11089,4.11487s1.96973,1.31275 3.59873,1.31275c1.657,0 2.87525,-0.42963 3.65941,-1.29365c0.78883,-0.86403 1.1669,-2.18632 1.13423,-3.96689l-0.29406,-17.73405l7.06677,0l-0.26139,14.3209zm16.66806,-14.76008c2.45517,0 4.93834,0.49646 7.45418,1.48937l-1.11556,5.9575l-1.02688,0.39621a15.80455,16.16352 0 0 0 -3.25333,-1.70419a8.3317,8.52094 0 0 0 -2.82391,-0.61103c-0.94286,0 -1.68968,0.23868 -2.24512,0.72082a2.10976,2.15768 0 0 0 -0.8355,1.68509c0,0.73037 0.3454,1.35094 1.05021,1.86172c0.69547,0.51078 1.80637,1.11703 3.31868,1.81875c1.59632,0.75901 2.88925,1.45118 3.87412,2.0813c0.98487,0.62535 1.84371,1.46551 2.56719,2.51571c0.72815,1.0502 1.09222,2.33431 1.09222,3.85232c0,1.69464 -0.45276,3.22698 -1.34894,4.59701a9.26522,9.47566 0 0 1 -3.83211,3.26517c-1.65234,0.80197 -3.56606,1.20296 -5.7365,1.20296a22.64261,23.1569 0 0 1 -8.56041,-1.75192l0.98487,-6.35371l0.72815,-0.4344c1.19491,1.02156 2.50184,1.81398 3.91613,2.38682c1.41429,0.56806 2.63254,0.85448 3.65941,0.85448c1.08289,0 1.90439,-0.24823 2.45983,-0.74469a2.20778,2.25793 0 0 0 0.84017,-1.75192a2.31047,2.36295 0 0 0 -1.06888,-1.97151a20.72422,21.19493 0 0 0 -3.34201,-1.84262a36.24404,37.06727 0 0 1 -3.7901,-2.03357a8.62109,8.8169 0 0 1 -2.54852,-2.51571c-0.71415,-1.0502 -1.06888,-2.33431 -1.06888,-3.8571c0,-1.72328 0.45276,-3.27949 1.34894,-4.66384s2.15177,-2.47274 3.76677,-3.26039s3.45404,-1.18863 5.53579,-1.18863zm32.99538,0c3.93947,0 6.97809,1.20296 9.12052,3.61364c2.13777,2.41069 3.21132,5.83338 3.21132,10.26809c0,4.84524 -1.17157,8.60686 -3.51472,11.27532c-2.33848,2.67323 -5.63848,4.00508 -9.89068,4.00508c-3.91146,0 -6.93608,-1.2316 -9.07385,-3.69957c-2.14244,-2.46797 -3.21132,-5.96227 -3.21132,-10.48767c0,-4.78795 1.16224,-8.48275 3.49138,-11.0796c2.32447,-2.59208 5.61514,-3.89529 9.86734,-3.89529zm-0.60212,5.69495c-1.33961,0 -2.41316,0.2721 -3.21132,0.80674c-0.79816,0.53942 -1.38628,1.41777 -1.75502,2.63027c-0.37341,1.20773 -0.55545,2.85463 -0.55545,4.92639c0,2.48229 0.18204,4.42993 0.55545,5.8477c0.36874,1.41777 0.96153,2.42978 1.77836,3.04558c0.81217,0.6158 1.91839,0.92131 3.31868,0.92131c1.36761,0 2.4505,-0.2721 3.25333,-0.81152c0.79816,-0.53942 1.37695,-1.42254 1.73169,-2.64937c0.35474,-1.22682 0.53211,-2.90237 0.53211,-5.03618c0,-2.45365 -0.18204,-4.37742 -0.55545,-5.78087c-0.36874,-1.39867 -0.95686,-2.40114 -1.75502,-2.99784s-1.90439,-0.90222 -3.33735,-0.90222zm41.80317,14.05835l0.25672,8.93147l-7.53353,0l-9.80666,-17.4715l-0.42942,0l-0.04201,7.53279l0.25672,9.93871l-6.29661,0l0.34074,-8.32044l-0.34074,-19.92515l7.49152,0l9.84867,17.47627l0.42475,0l-0.16803,-17.20895l6.38063,-0.39621l-0.38274,19.44301zm-242.09994,33.31042l-0.81683,11.13211l-9.83934,-0.45827l-0.89618,0l-0.37341,21.57205l0.59279,16.01077l-14.90837,0l0.74682,-14.48321l-0.37341,-23.09484l-0.97086,0l-9.91402,0.45827l-0.89618,-1.06929l0.8215,-11.13211l36.00133,0l0.82617,1.06452zm54.33106,48.25189l-15.79988,0l-4.54626,-17.8343l-0.89151,0l-4.17285,17.8343l-15.87456,0l-11.32831,-49.32119l14.46028,0l0.74682,7.62349l4.69562,26.36955l0.89151,0l5.5918,-22.48382l-2.53452,-11.514l15.05773,0l1.04555,9.15106l5.06436,24.84676l0.89151,0l5.89053,-25.45779l1.33961,-8.54003l13.71346,0l-14.2409,49.32596zm32.42593,-16.01077l0.59745,16.01077l-14.98305,0l0.74215,-14.48321l-0.74215,-34.83321l15.20709,0l-0.8215,33.30564zm43.74957,-32.24112l-0.8215,11.13211l-9.83467,-0.45827l-0.89151,0l-0.37341,21.57205l0.59745,16.01077l-14.90837,0l0.74682,-14.48321l-0.37341,-23.09484l-0.97086,0l-9.91402,0.45827l-0.89151,-1.06929l0.8215,-11.13211l35.99666,0l0.81683,1.06452zm38.68054,0l-0.81683,11.13211l-9.83934,-0.45827l-0.89618,0l-0.37341,21.57205l0.59745,16.01077l-14.9037,0l0.74215,-14.48321l-0.36874,-23.09484l-0.97086,0l-9.91402,0.45827l-0.89151,-1.06929l0.8215,-11.13211l36.00133,0l0.81217,1.06452zm38.3118,36.05526l0.8215,1.06929l-0.89151,11.12734l-33.98958,0l0.74682,-14.48321l-0.74682,-34.83321l34.58237,0l0.8215,1.06929l-0.9662,11.13211l-11.85108,-0.45827l-7.67823,0l-0.14936,6.93609l7.3795,0l7.74824,-0.22913l0.8215,1.06929l-0.89151,11.12734l-8.64909,-0.22913l-6.71203,0l-0.07468,2.89282l0.14936,4.2724l7.15546,0l12.37385,-0.46304zm38.0084,-7.2416a260.70039,266.62177 0 0 0 10.73552,15.85324l-0.22405,1.68032c-5.06903,1.5753 -10.06338,2.51571 -14.98305,2.82122l-1.41429,-1.21728l-0.89618,-1.90468a279.14681,285.48717 0 0 1 -2.38515,-5.14598a140.98536,144.18761 0 0 1 -3.13197,-7.35617l-4.98968,0l0.51811,14.71234l-14.97838,0l0.74215,-14.48321l-0.74215,-34.83321l22.88066,-0.07638c5.41444,0 9.58728,1.30798 12.52322,3.9287c2.93126,2.61595 4.39223,6.38712 4.39223,11.31829c0,2.89282 -0.70481,5.61379 -2.12377,8.15337s-3.38869,4.72112 -5.92321,6.54943zm-7.67356,-13.18478c0,-2.03357 -0.50877,-3.54681 -1.52631,-4.53495c-1.02221,-0.99292 -2.66988,-1.53711 -4.96168,-1.64213l-2.67921,0.22913l-0.29873,12.73128l5.44244,0.30074c1.39095,-0.65876 2.41316,-1.54666 3.05729,-2.66846c0.64413,-1.11703 0.9662,-2.58731 0.9662,-4.41561zm-355.64438,-44.77191a36.51943,37.34891 0 0 1 -10.51147,2.95488a18.31106,18.72697 0 0 0 8.04697,-10.36833a36.94419,37.78331 0 0 1 -11.63637,4.53495a18.24105,18.65536 0 0 0 -13.38206,-5.88589a18.31106,18.72697 0 0 0 -17.83496,22.98505a52.02525,53.20692 0 0 1 -37.74702,-19.56713a18.35307,18.76993 0 0 0 -2.4645,9.39929c0,6.49692 3.21132,12.23005 8.14499,15.56682a18.30172,18.71742 0 0 1 -8.29435,-2.34385l0,0.22913c0,9.0699 6.30595,16.66476 14.69832,18.36894a18.2037,18.61717 0 0 1 -4.83565,0.66354c-1.1669,0 -2.31981,-0.12411 -3.46337,-0.32938a18.38574,18.80334 0 0 0 17.09281,13.02247a36.76215,37.59714 0 0 1 -27.10952,7.74761a51.82921,53.00643 0 0 0 28.08038,8.41114c33.68152,0 52.12327,-28.54156 52.12327,-53.30717c0,-0.81152 -0.02334,-1.62781 -0.05134,-2.42023a36.23004,37.05295 0 0 0 9.14386,-9.66183z" fill="#FFF"/>
 </g>
</svg>